<?xml version="1.0" encoding="UTF-8"?>
<svg version="1.1" xmlns="http://www.w3.org/2000/svg" width="1920" height="1080">
<path d="M0 0 C633.6 0 1267.2 0 1920 0 C1920 356.4 1920 712.8 1920 1080 C1286.4 1080 652.8 1080 0 1080 C0 723.6 0 367.2 0 0 Z " fill="#D54309" transform="translate(0,0)"/>
<path d="M0 0 C2.07560108 0.0068625 4.15120336 0.01337021 6.22680664 0.01953125 C20.81161677 0.08181269 35.37318663 0.37271324 49.9375 1.1875 C46.35935342 4.81168891 42.69466442 8.31228991 38.9375 11.75 C38.42960937 12.21857422 37.92171875 12.68714844 37.3984375 13.16992188 C35.08556697 15.29005319 32.75736146 17.32837417 30.28515625 19.26171875 C14.93309086 31.85501032 15.52872717 56.65876003 13.4375 74.75 C13.13154948 77.32647484 12.824413 79.90280912 12.51611328 82.47900391 C11.91607283 87.49776276 11.31994369 92.51695537 10.72753906 97.53662109 C9.79876028 105.38429086 8.82664449 113.22539605 7.8125 121.0625 C7.58735718 122.80490967 7.58735718 122.80490967 7.35766602 124.58251953 C6.01043066 134.86774041 4.53143736 145.13382163 3.04580688 155.39978027 C1.77315491 164.19403547 0.55491127 172.98896021 -0.5 181.8125 C-2.01867631 194.48469645 -3.922463 207.10092335 -5.81811523 219.72119141 C-7.17266458 228.78874128 -8.41783122 237.86044129 -9.53125 246.9609375 C-11.01888807 259.10733885 -12.7650469 271.20860375 -14.5625 283.3125 C-15.15783307 287.33570508 -15.75154544 291.35914573 -16.34375 295.3828125 C-16.48860336 296.36695633 -16.63345673 297.35110016 -16.78269958 298.36506653 C-18.16281347 307.78841019 -19.44695028 317.22397121 -20.72027588 326.66223145 C-21.24124669 330.50647015 -21.77390927 334.34905426 -22.30859375 338.19140625 C-22.40645676 338.89486679 -22.50431976 339.59832733 -22.60514832 340.32310486 C-22.802286 341.73945236 -22.99950597 343.1557884 -23.19680786 344.57211304 C-23.51453245 346.85438939 -23.83145615 349.13677587 -24.14819336 351.41918945 C-25.13703535 358.54334336 -26.12888176 365.66701523 -27.1328125 372.7890625 C-28.51009717 382.60556519 -29.8741609 392.41935793 -31.0234375 402.265625 C-31.14346382 403.29391922 -31.14346382 403.29391922 -31.26591492 404.34298706 C-31.34630508 405.0320816 -31.42669525 405.72117615 -31.50952148 406.43115234 C-36.82511516 451.96517843 -36.82511516 451.96517843 -43.0625 473.1875 C-43.37960937 474.27675781 -43.69671875 475.36601563 -44.0234375 476.48828125 C-46.00592216 482.85602197 -48.48873584 488.55329201 -52.0625 494.1875 C-52.619375 495.074375 -53.17625 495.96125 -53.75 496.875 C-61.32658965 504.45158965 -71.92832527 508.70453268 -82.44140625 509.81640625 C-83.41432617 509.92251221 -84.38724609 510.02861816 -85.38964844 510.13793945 C-87.34673146 510.33431996 -89.30757011 510.49686682 -91.27050781 510.62182617 C-96.61394308 511.10408331 -96.61394308 511.10408331 -100.96948242 513.9855957 C-102.46325842 515.99538259 -103.752346 518.05609922 -105.0625 520.1875 C-117.86514986 532.99014986 -139.94498768 535.26510831 -157.23899186 535.32124341 C-158.08527866 535.31901268 -158.93156546 535.31678196 -159.80349731 535.31448364 C-160.73120308 535.31604363 -161.65890884 535.31760362 -162.6147269 535.31921089 C-165.69645561 535.3231713 -168.77813428 535.32005025 -171.85986328 535.31689453 C-174.08212309 535.31825105 -176.30438268 535.32003239 -178.52664185 535.32220459 C-184.55334224 535.32675702 -190.58002548 535.32499624 -196.60672617 535.3218255 C-202.95680186 535.31928115 -209.30687615 535.32164608 -215.6569519 535.32321167 C-227.036066 535.32514776 -238.41517148 535.32204333 -249.79428385 535.31695233 C-260.02057462 535.31251737 -270.24685399 535.31323362 -280.47314453 535.31787109 C-292.41210409 535.3232829 -304.35105676 535.32518074 -316.29001796 535.32225883 C-322.58451349 535.3207212 -328.87900126 535.32043059 -335.17349625 535.32379532 C-379.86816565 535.34413973 -379.86816565 535.34413973 -402.12862945 534.86015296 C-403.8111071 534.8236347 -405.49364045 534.78957553 -407.17622399 534.75831437 C-423.3057173 534.44565062 -440.17180631 533.7056008 -452.25 521.5 C-463.03878073 507.22393661 -457.88689634 483.65655339 -456.0625 467.1875 C-455.96694824 466.32125 -455.87139648 465.455 -455.77294922 464.5625 C-455.53760397 462.43733657 -455.30026536 460.31239403 -455.0625 458.1875 C-455.28164063 459.156875 -455.50078125 460.12625 -455.7265625 461.125 C-463.17284955 493.03077365 -463.17284955 493.03077365 -476.1875 501.9375 C-488.80573594 509.45693856 -500.75324558 510.38381599 -515.0625 510.1875 C-515.3409375 510.94160156 -515.619375 511.69570313 -515.90625 512.47265625 C-519.52697073 520.97401066 -527.11395562 525.6639205 -535.35810769 529.16137666 C-542.17820773 531.81919991 -548.39985157 532.98128809 -555.68405151 533.4223175 C-556.76611842 533.49757575 -557.84818533 533.572834 -558.96304214 533.6503728 C-570.6788862 534.40116348 -582.38250498 534.46176744 -594.11767578 534.43041992 C-596.50766044 534.43149669 -598.89764483 534.43344119 -601.28762817 534.43617249 C-607.6966051 534.44096048 -614.10551083 534.43344183 -620.51447916 534.42321944 C-626.58201772 534.41524145 -632.64954968 534.41605958 -638.71709238 534.41649476 C-650.74060632 534.41699237 -662.7640934 534.407916 -674.78759766 534.39331055 C-686.39111825 534.37922305 -697.99461526 534.37214034 -709.59814453 534.37280273 C-710.31337308 534.37284269 -711.02860163 534.37288265 -711.76550378 534.37292381 C-712.47963283 534.37296417 -713.19376189 534.37300452 -713.92953122 534.3730461 C-727.23481734 534.3737401 -740.54009367 534.36782317 -753.84537659 534.35889288 C-758.5091324 534.3559068 -763.17288634 534.35482783 -767.83664322 534.35436058 C-774.13897376 534.35334525 -780.44128021 534.34715326 -786.74360275 534.33719444 C-789.03669334 534.33431009 -791.3297867 534.33303565 -793.62287903 534.33362198 C-804.9005008 534.3354122 -816.15621091 534.22071169 -827.42477417 533.74092102 C-828.33430096 533.70224511 -829.24382775 533.66356921 -830.18091595 533.6237213 C-834.78147702 533.40667415 -839.37466635 533.11739683 -843.9661274 532.75520611 C-844.84258514 532.68637586 -845.71904288 532.61754562 -846.62205994 532.54662961 C-850.49485368 531.97671809 -853.5774582 530.43598975 -856.9375 528.5 C-857.87335938 528.00983398 -857.87335938 528.00983398 -858.828125 527.50976562 C-865.14977456 524.02218892 -869.10998116 519.48147784 -871.375 512.5 C-877.47298602 490.12412478 -870.90930498 463.31113101 -867.9921875 440.671875 C-867.83733887 439.46756836 -867.68249023 438.26326172 -867.52294922 437.02246094 C-867.0625 434.1875 -867.0625 434.1875 -866.0625 432.1875 C-858.8025 432.1875 -851.5425 432.1875 -844.0625 432.1875 C-844.0625 429.2175 -844.0625 426.2475 -844.0625 423.1875 C-843.80436176 420.6813035 -843.4960879 418.17947713 -843.125 415.6875 C-842.95097656 414.4809375 -842.77695312 413.274375 -842.59765625 412.03125 C-842.0625 409.1875 -842.0625 409.1875 -841.0625 408.1875 C-837.94010807 408.08944058 -834.83981859 408.05759524 -831.71702576 408.06724548 C-830.22728928 408.06596385 -830.22728928 408.06596385 -828.70745713 408.06465632 C-825.35239819 408.06299851 -821.99738837 408.06852779 -818.64233398 408.07397461 C-816.24812827 408.07425644 -813.85392246 408.07409882 -811.4597168 408.0735321 C-806.29119319 408.07330379 -801.12268086 408.07615511 -795.95416069 408.08176994 C-788.48126712 408.08988288 -781.00837967 408.09249995 -773.53548218 408.09375793 C-761.41240459 408.09594878 -749.28933371 408.10260975 -737.16625977 408.11206055 C-725.38696323 408.12123382 -713.60766852 408.12831507 -701.82836914 408.13256836 C-700.74000334 408.13296244 -700.74000334 408.13296244 -699.62965035 408.13336449 C-695.98979168 408.13466949 -692.349933 408.13593321 -688.71007431 408.13717639 C-658.4942114 408.14755002 -628.27835663 408.16524334 -598.0625 408.1875 C-598.0625 407.1975 -598.0625 406.2075 -598.0625 405.1875 C-599.15949093 405.18842179 -600.25648186 405.18934359 -601.38671494 405.19029331 C-628.10391159 405.21251287 -654.82110705 405.22893527 -681.538311 405.23931217 C-694.45864948 405.244464 -707.37898185 405.25148549 -720.29931641 405.26293945 C-731.56332855 405.2729203 -742.82733626 405.27936153 -754.0913527 405.28158849 C-760.05311268 405.28288982 -766.01485999 405.28593908 -771.97661591 405.29323006 C-777.59404779 405.30004394 -783.21146185 405.30210607 -788.82889748 405.30060768 C-790.88470621 405.3008816 -792.94051558 405.30285475 -794.99632072 405.30670547 C-836.53348664 405.38065791 -836.53348664 405.38065791 -849.61328125 393.81640625 C-857.75363158 384.95567093 -857.68290142 372.13475004 -857.24169922 360.82373047 C-856.67777661 352.5277681 -855.0990224 344.31521188 -853.72167969 336.12451172 C-852.46352185 328.61004752 -851.26117207 321.08664914 -850.0625 313.5625 C-849.93385559 312.75802429 -849.80521118 311.95354858 -849.67266846 311.12469482 C-847.44552052 297.15618229 -845.58776632 283.16673374 -843.921875 269.12109375 C-835.417946 198.76068408 -835.417946 198.76068408 -815.0625 182.1875 C-811.49837434 179.89804428 -808.39487437 178.1875 -804.0625 178.1875 C-803.753125 176.95 -803.753125 176.95 -803.4375 175.6875 C-799.80718594 166.44670058 -792.30721663 159.2242868 -783.359375 155.0625 C-771.13230571 150.40456884 -758.67869174 150.03808911 -745.76878357 150.06724548 C-744.32558535 150.06680887 -742.88238721 150.06593231 -741.43918949 150.06465632 C-737.49176572 150.06242901 -733.54436928 150.06640841 -729.59694898 150.07143438 C-725.33326367 150.0757641 -721.06957983 150.07429067 -716.80589294 150.0735321 C-709.42484105 150.07300847 -702.04379801 150.07613854 -694.66274834 150.08176994 C-683.99106854 150.08990663 -673.31939301 150.09250239 -662.64771045 150.09375793 C-645.33243931 150.09594504 -628.01717288 150.10259589 -610.7019043 150.11206055 C-593.88452172 150.12124348 -577.06714043 150.12832001 -560.24975586 150.13256836 C-558.69409093 150.13296244 -558.69409093 150.13296244 -557.10699844 150.13336449 C-551.90397736 150.13466956 -546.70095627 150.13593326 -541.49793518 150.13717639 C-498.35278685 150.14753839 -455.20764367 150.16514743 -412.0625 150.1875 C-412.0467155 151.75894429 -412.03556522 153.33043547 -412.02630615 154.90193176 C-412.01958767 155.77704816 -412.01286919 156.65216455 -412.00594711 157.55379963 C-412.09228027 161.57438404 -412.73792038 165.43702965 -413.453125 169.38671875 C-413.59901062 170.22483597 -413.74489624 171.06295319 -413.89520264 171.9264679 C-414.20385418 173.68762559 -414.51666826 175.4480585 -414.83349609 177.20776367 C-415.30792709 179.8495367 -415.76628319 182.49372663 -416.22265625 185.13867188 C-424.0089834 229.54380513 -424.0089834 229.54380513 -438.875 241.5625 C-450.47420692 249.52009545 -466.18202506 252.72136442 -480.0625 252.1875 C-480.32804687 252.76628906 -480.59359375 253.34507812 -480.8671875 253.94140625 C-485.844646 263.2944737 -493.71025595 268.32203448 -503.5625 271.375 C-520.75898707 275.93133418 -538.91802587 276.3485811 -556.60498047 276.30102539 C-558.10456338 276.30074247 -559.60414642 276.30090329 -561.10372925 276.3014679 C-565.12757775 276.3017518 -569.1513957 276.29592161 -573.17523718 276.28889394 C-577.39792057 276.28259193 -581.62060486 276.28205123 -585.84329224 276.28086853 C-593.81850849 276.27777523 -601.79371085 276.26958914 -609.76892102 276.25951904 C-618.8573417 276.24829535 -627.94576309 276.24283177 -637.03418899 276.23782361 C-655.7103005 276.2274046 -674.38639913 276.20984438 -693.0625 276.1875 C-693.0625 276.8475 -693.0625 277.5075 -693.0625 278.1875 C-691.82736318 278.18473462 -691.82736318 278.18473462 -690.56727409 278.18191338 C-670.28899956 278.13724063 -650.01073379 278.10440837 -629.73241997 278.08387566 C-619.92494782 278.07367573 -610.11750939 278.05977588 -600.31005859 278.03662109 C-524.68620458 277.86208536 -524.68620458 277.86208536 -497.7578125 279.0078125 C-496.88106747 279.04260586 -496.00432243 279.07739922 -495.10100937 279.11324692 C-463.55373771 280.43095934 -463.55373771 280.43095934 -452.0625 287.1875 C-450.969375 287.826875 -449.87625 288.46625 -448.75 289.125 C-442.49473235 293.92555424 -440.09647117 299.72069975 -438.0625 307.1875 C-437.49211918 311.75288692 -437.36929068 316.27753662 -437.3125 320.875 C-437.28285156 322.06544922 -437.25320313 323.25589844 -437.22265625 324.48242188 C-437.15273438 327.38417938 -437.09965598 330.28516981 -437.0625 333.1875 C-436.09843818 326.39685239 -435.13866649 319.60560758 -434.18164062 312.81396484 C-433.85674257 310.51174748 -433.53092297 308.20965995 -433.20410156 305.90771484 C-431.57489593 294.42831198 -429.97536931 282.95791027 -428.74557495 271.42816162 C-421.18588613 200.84187144 -421.18588613 200.84187144 -404.1171875 185.54296875 C-401.51416754 183.82576737 -398.78396786 182.64512319 -395.9375 181.375 C-390.27484718 178.74039106 -388.57021287 176.37615955 -386.24609375 170.71484375 C-383.09748279 163.99157216 -376.84862726 159.30682769 -370.21484375 156.28125 C-366.13372913 154.86524988 -362.03072305 153.85631255 -357.8125 152.9375 C-356.68847778 152.69241699 -356.68847778 152.69241699 -355.54174805 152.44238281 C-342.29574441 149.81308403 -328.74859904 150.04480374 -315.30712891 150.07397461 C-313.46272279 150.07425731 -311.61831657 150.07409712 -309.77391052 150.0735321 C-304.81001179 150.07324738 -299.84613765 150.07909131 -294.88224459 150.08610606 C-289.67860828 150.09239395 -284.4749713 150.09294767 -279.27133179 150.09413147 C-269.43677852 150.09722885 -259.60223649 150.1054206 -249.76768816 150.11548096 C-238.56322511 150.12669178 -227.35876151 150.13216503 -216.15429425 150.13717639 C-193.12368996 150.14760468 -170.09309561 150.16517303 -147.0625 150.1875 C-146.89416153 149.08953598 -146.72582306 147.99157196 -146.55238342 146.8603363 C-145.91542981 142.70692703 -145.27771147 138.55363544 -144.63978577 134.40037537 C-144.36608523 132.61775256 -144.09258011 130.83509974 -143.81929016 129.05241394 C-132.72064865 56.66215853 -132.72064865 56.66215853 -111.0625 40.1875 C-109.5476368 39.24038345 -108.02668772 38.30293583 -106.5 37.375 C-102.01323859 34.50162882 -99.67719068 31.03176599 -96.7734375 26.63671875 C-88.05459208 14.15563181 -71.26515648 8.4588984 -57.0625 5.1875 C-55.89460938 4.91292969 -54.72671875 4.63835937 -53.5234375 4.35546875 C-35.79121115 0.50146238 -18.08785401 -0.12278684 0 0 Z " fill="#FEFEFE" transform="translate(1187.0625,212.8125)"/>
<path d="M0 0 C2.73157127 -0.00408655 5.46312531 -0.01259199 8.19468689 -0.02079773 C14.7776924 -0.03779698 21.36060171 -0.03886591 27.94362342 -0.03358483 C33.30418664 -0.0295073 38.66472189 -0.03102858 44.02528381 -0.03633308 C45.1791906 -0.03745572 45.1791906 -0.03745572 46.35640863 -0.03860103 C47.920224 -0.04013284 49.48403936 -0.04167119 51.04785472 -0.043216 C65.637375 -0.05687189 80.22684131 -0.05155162 94.81636029 -0.04003078 C108.10281355 -0.03009857 121.38912754 -0.04305126 134.67555934 -0.06696498 C148.39370645 -0.09146552 162.11178898 -0.10093755 175.82995749 -0.09431225 C183.50151214 -0.09084513 191.17295983 -0.09288433 198.84449768 -0.11056328 C205.3722865 -0.12542313 211.89989293 -0.1257435 218.4276787 -0.10849237 C221.74447379 -0.1000926 225.06068365 -0.09980167 228.37750053 -0.11314392 C281.87483523 -0.31169407 281.87483523 -0.31169407 296.14257812 13.54077148 C303.40613123 21.88948192 303.03608236 30.85528229 303.07617188 41.40405273 C303.07912262 42.08512085 303.08207336 42.76618896 303.08511353 43.46789551 C303.09963634 58.35052494 301.2075354 72.72471764 298.76367188 87.40405273 C298.37806686 89.78187549 297.99544011 92.16015656 297.61352539 94.53857422 C297.37783004 96.00587234 297.13999327 97.47282789 296.90014648 98.93945312 C295.74822804 106.1338246 294.88908078 113.35916878 294.01367188 120.59155273 C292.39465052 133.91284356 290.53157512 147.19071063 288.57617188 160.46655273 C288.35900513 161.94242859 288.35900513 161.94242859 288.13745117 163.44812012 C287.52197289 167.63064373 286.90637188 171.81314925 286.29043579 175.99560547 C284.36831527 189.06406625 282.48183869 202.13761233 280.60653687 215.21286011 C280.21806922 217.92053507 279.82811282 220.62798831 279.43667603 223.3352356 C277.38122304 237.56468766 275.38651808 251.78972764 273.78961182 266.0790863 C273.14647086 271.71790492 272.29433485 277.2705155 271.24163818 282.84745789 C270.57732674 286.40079454 270.02352685 289.96503084 269.46679688 293.53686523 C262.31901714 338.48283761 262.31901714 338.48283761 247.38867188 351.71655273 C237.38367899 358.45819833 224.47183194 361.1216534 212.60205078 361.47143555 C210.17876807 361.55001979 210.17876807 361.55001979 206.76367188 362.40405273 C204.34959421 365.16831812 204.34959421 365.16831812 202.76367188 368.40405273 C195.20116048 378.2454009 182.84762365 382.34232351 170.94220161 384.13203621 C166.98295392 384.62639751 163.01767298 384.80630302 159.03295898 384.97216797 C157.55682208 385.0341709 157.55682208 385.0341709 156.05086422 385.09742641 C141.48572853 385.63714544 126.90720028 385.53095507 112.33453107 385.50544667 C108.07986954 385.49909694 103.82520692 385.49860032 99.57054138 385.49742126 C91.55312565 385.49434159 83.53572393 385.48617468 75.5183143 385.47607177 C66.37406326 385.46480472 57.22981147 385.45937379 48.0855552 385.45437634 C29.31158621 385.44398833 10.53763018 385.42645571 -8.23632812 385.40405273 C-8.36815554 386.4782355 -8.49998295 387.55241827 -8.63580513 388.65915203 C-8.81339079 390.09566625 -8.99103616 391.53217308 -9.16873169 392.96867371 C-9.25506017 393.67343071 -9.34138865 394.3781877 -9.43033314 395.10430098 C-10.26774045 401.85601798 -11.33777858 408.56042307 -12.47851562 415.26733398 C-12.68815948 416.50597702 -12.89780334 417.74462006 -13.11380005 419.02079773 C-13.55385194 421.60990818 -13.99591373 424.1986778 -14.43994141 426.78710938 C-14.88894335 429.41499528 -15.33413111 432.04312462 -15.77197266 434.67285156 C-16.41393595 438.51865625 -17.06960695 442.36190058 -17.72851562 446.20483398 C-18.01624344 447.94740227 -18.01624344 447.94740227 -18.30978394 449.72517395 C-21.61956241 468.69467245 -29.83170799 485.12111838 -45.60351562 496.74389648 C-56.22885995 503.44385396 -67.97755606 508.02357659 -80.61132812 508.65405273 C-85.06166441 509.57481196 -86.19764269 511.12188196 -89.16210938 514.37280273 C-112.2971008 537.02853822 -151.98964953 534.58563997 -181.67382812 534.46655273 C-183.86979064 534.46152542 -186.06575428 534.4569647 -188.26171875 534.45288086 C-193.5866134 534.44197807 -198.91146537 534.42533848 -204.23632812 534.40405273 C-201.59852943 531.73241459 -198.99213668 529.0930153 -196.08007812 526.72045898 C-195.25830078 526.04080078 -195.25830078 526.04080078 -194.41992188 525.34741211 C-193.29943898 524.42840816 -192.17704478 523.5117295 -191.05273438 522.59741211 C-187.29573361 519.48131147 -184.25641944 516.24358862 -181.23632812 512.40405273 C-180.676875 511.70022461 -180.11742187 510.99639648 -179.54101562 510.27124023 C-172.24434821 500.10375285 -171.56818174 487.61162277 -170.15914917 475.52023315 C-169.64205427 471.08637882 -169.09933955 466.65562572 -168.56054688 462.22436523 C-168.45124344 461.31978073 -168.34194 460.41519623 -168.22932434 459.48320007 C-167.12991506 450.42412226 -165.91257613 441.3824606 -164.67382812 432.34155273 C-164.25652211 429.28565014 -163.8399603 426.22964664 -163.42382812 423.17358398 C-163.32314529 422.4344426 -163.22246246 421.69530121 -163.11872864 420.9337616 C-162.10464985 413.46965748 -161.13412787 406.00026051 -160.17382812 398.52905273 C-160.01043945 397.2604541 -159.84705078 395.99185547 -159.67871094 394.68481445 C-158.89046382 388.54954572 -158.11138766 382.41327172 -157.34570312 376.27514648 C-155.0665267 358.13471275 -152.46693644 340.05003897 -149.80786133 321.96191406 C-147.70553098 307.65892404 -145.67920723 293.3485667 -143.73095703 279.02368164 C-142.8704966 272.72694602 -141.9937991 266.43246634 -141.1182251 260.13781738 C-140.7991824 257.84409977 -140.48036489 255.55035097 -140.16162109 253.2565918 C-139.7336279 250.17666716 -139.30556564 247.09675213 -138.87744141 244.0168457 C-138.24546941 239.47017495 -137.61389467 234.92344909 -136.98242188 230.37670898 C-136.82817245 229.26629745 -136.82817245 229.26629745 -136.67080688 228.13345337 C-136.14984701 224.3828996 -135.62926628 220.63229385 -135.109375 216.8815918 C-134.18735618 210.23237791 -133.26334117 203.58349608 -132.32452393 196.93663025 C-131.81404553 193.32187259 -131.305798 189.70680404 -130.79882812 186.09155273 C-130.69797913 185.37242706 -130.59713013 184.65330139 -130.4932251 183.91238403 C-129.16375761 174.40179149 -127.90227859 164.88385579 -126.69335938 155.35717773 C-126.56177933 154.32039383 -126.43019928 153.28360992 -126.29463196 152.21540833 C-125.65059255 147.12947282 -125.01158494 142.04295768 -124.37915039 136.95556641 C-123.06387008 126.44228855 -121.59282861 115.973828 -119.89697266 105.51513672 C-119.09890544 100.59260269 -118.41137705 95.65721692 -117.73632812 90.71655273 C-117.24675937 87.2774833 -116.74537488 83.84029006 -116.23632812 80.40405273 C-116.12853027 79.67025391 -116.02073242 78.93645508 -115.90966797 78.18041992 C-113.45692383 62.00210453 -108.99039598 44.59456665 -95.23632812 34.40405273 C-91.30156986 31.84706151 -87.83056063 30.30292431 -83.23632812 29.40405273 C-83.130625 28.67959961 -83.02492188 27.95514648 -82.91601562 27.20874023 C-80.88241015 18.81719582 -74.53713525 13.34150807 -67.47070312 8.97436523 C-59.14242292 4.93092484 -50.99840834 2.67731356 -41.81359863 1.67930603 C-40.73653924 1.55746254 -39.65947984 1.43561905 -38.54978228 1.31008333 C-25.71308461 -0.02088925 -12.89195312 -0.02476727 0 0 Z " fill="#FEFEFE" transform="translate(1303.236328125,362.595947265625)"/>
<path d="M0 0 C1.44319822 -0.00043661 2.88639636 -0.00131317 4.32959408 -0.00258917 C8.27701785 -0.00481648 12.22441429 -0.00083707 16.17183459 0.0041889 C20.4355199 0.00851861 24.69920374 0.00704518 28.96289062 0.00628662 C36.34394252 0.00576298 43.72498556 0.00889306 51.10603523 0.01452446 C61.77771503 0.02266115 72.44939056 0.02525691 83.12107312 0.02651245 C100.43634426 0.02869956 117.75161069 0.03535041 135.06687927 0.04481506 C151.88426185 0.053998 168.70164314 0.06107452 185.51902771 0.06532288 C187.07469263 0.06571696 187.07469263 0.06571696 188.66178513 0.06611901 C193.86480621 0.06742407 199.0678273 0.06868777 204.27084839 0.06993091 C247.41599672 0.0802929 290.5611399 0.09790195 333.70628357 0.12025452 C333.72206807 1.69169881 333.73321835 3.26318999 333.74247742 4.83468628 C333.7491959 5.70980268 333.75591438 6.58491907 333.76283646 7.48655415 C333.6765033 11.50713855 333.03086319 15.36978417 332.31565857 19.31947327 C332.16977295 20.15759048 332.02388733 20.9957077 331.87358093 21.85922241 C331.56492939 23.6203801 331.25211531 25.38081301 330.93528748 27.14051819 C330.46085648 29.78229121 330.00250038 32.42648115 329.54612732 35.07142639 C321.75980017 79.47655965 321.75980017 79.47655965 306.89378357 91.49525452 C295.29457665 99.45284996 279.58675851 102.65411894 265.70628357 102.12025452 C265.44073669 102.69904358 265.17518982 103.27783264 264.90159607 103.87416077 C259.92413757 113.22722821 252.05852762 118.25478899 242.20628357 121.30775452 C225.0097965 125.8640887 206.8507577 126.28133561 189.1638031 126.23377991 C187.66422019 126.23349699 186.16463715 126.2336578 184.66505432 126.23422241 C180.64120582 126.23450631 176.61738786 126.22867613 172.59354639 126.22164845 C168.370863 126.21534644 164.1481787 126.21480575 159.92549133 126.21362305 C151.95027508 126.21052975 143.97507272 126.20234365 135.99986255 126.19227356 C126.91144187 126.18104986 117.82302048 126.17558628 108.73459458 126.17057812 C90.05848307 126.16015911 71.38238444 126.14259889 52.70628357 126.12025452 C52.70628357 126.78025452 52.70628357 127.44025452 52.70628357 128.12025452 C53.52970812 128.11841093 54.35313267 128.11656734 55.20150948 128.11466789 C75.47978401 128.06999515 95.75804977 128.03716289 116.0363636 128.01663017 C125.84383575 128.00643025 135.65127418 127.9925304 145.45872498 127.96937561 C221.08257899 127.79483988 221.08257899 127.79483988 248.01097107 128.94056702 C248.8877161 128.97536037 249.76446114 129.01015373 250.6677742 129.04600143 C282.21504586 130.36371386 282.21504586 130.36371386 293.70628357 137.12025452 C295.34597107 138.07931702 295.34597107 138.07931702 297.01878357 139.05775452 C303.26900478 143.85443591 305.6984606 149.64800018 307.70628357 157.12025452 C308.25252022 161.71065418 308.25813573 166.22855428 308.18284607 170.84681702 C308.16503586 172.80018478 308.16503586 172.80018478 308.14686584 174.79301453 C307.93146107 188.7866616 306.24589067 202.60389966 304.35681915 216.45859146 C303.9798837 219.24476706 303.6169527 222.03270414 303.25378609 224.82070255 C302.11068999 233.59274584 300.9177524 242.35740376 299.70628357 251.12025452 C299.48271179 252.74565155 299.48271179 252.74565155 299.25462341 254.40388489 C297.56349304 266.66925583 295.74433479 278.90760576 293.70628357 291.12025452 C293.58702515 291.84005493 293.46776672 292.55985535 293.34489441 293.3014679 C285.64454895 339.55135281 285.64454895 339.55135281 272.30784607 349.99916077 C259.12718592 359.04434159 246.19386661 360.3327366 230.70628357 360.12025452 C230.42784607 360.87435608 230.14940857 361.62845764 229.86253357 362.40541077 C226.24181284 370.90676517 218.65482795 375.59667501 210.41067588 379.09413117 C203.59057584 381.75195442 197.368932 382.91404261 190.08473206 383.35507202 C189.00266515 383.43033027 187.92059824 383.50558852 186.80574143 383.58312732 C175.08989737 384.33391799 163.38627859 384.39452196 151.65110779 384.36317444 C149.26112313 384.36425121 146.87113873 384.36619571 144.4811554 384.368927 C138.07217847 384.373715 131.66327274 384.36619634 125.25430441 384.35597396 C119.18676585 384.34799597 113.11923388 384.3488141 107.05169119 384.34924928 C95.02817725 384.34974688 83.00469017 384.34067052 70.98118591 384.32606506 C59.37766532 384.31197757 47.77416831 384.30489485 36.17063904 384.30555725 C35.45541049 384.30559721 34.74018193 384.30563716 34.00327979 384.30567833 C33.28915074 384.30571868 32.57502168 384.30575904 31.83925235 384.30580062 C18.53396623 384.30649461 5.2286899 384.30057768 -8.07659302 384.2916474 C-12.74034883 384.28866131 -17.40410278 384.28758235 -22.06785965 384.2871151 C-28.37019019 384.28609977 -34.67249664 384.27990778 -40.97481918 384.26994896 C-43.26790977 384.26706461 -45.56100313 384.26579016 -47.85409546 384.2663765 C-59.13171723 384.26816671 -70.38742734 384.15346621 -81.6559906 383.67367554 C-83.02028078 383.61566168 -83.02028078 383.61566168 -84.41213238 383.55647582 C-89.01269345 383.33942866 -93.60588278 383.05015135 -98.19734383 382.68796062 C-99.07380157 382.61913038 -99.95025931 382.55030013 -100.85327637 382.47938412 C-104.72607011 381.90947261 -107.80867463 380.36874426 -111.16871643 378.43275452 C-112.10457581 377.9425885 -112.10457581 377.9425885 -113.05934143 377.44252014 C-119.38099099 373.95494343 -123.34119759 369.41423235 -125.60621643 362.43275452 C-131.70420245 340.0568793 -125.14052141 313.24388553 -122.22340393 290.60462952 C-122.0685553 289.40032288 -121.91370667 288.19601624 -121.75416565 286.95521545 C-121.29371643 284.12025452 -121.29371643 284.12025452 -120.29371643 282.12025452 C-113.03371643 282.12025452 -105.77371643 282.12025452 -98.29371643 282.12025452 C-98.29371643 279.15025452 -98.29371643 276.18025452 -98.29371643 273.12025452 C-98.03557819 270.61405802 -97.72730433 268.11223165 -97.35621643 265.62025452 C-97.18219299 264.41369202 -97.00816956 263.20712952 -96.82887268 261.96400452 C-96.29371643 259.12025452 -96.29371643 259.12025452 -95.29371643 258.12025452 C-92.1713245 258.0221951 -89.07103502 257.99034976 -85.94824219 258 C-84.45850571 257.99871836 -84.45850571 257.99871836 -82.93867356 257.99741083 C-79.58361463 257.99575303 -76.2286048 258.0012823 -72.87355042 258.00672913 C-70.4793447 258.00701096 -68.08513889 258.00685334 -65.69093323 258.00628662 C-60.52240962 258.0060583 -55.35389729 258.00890962 -50.18537712 258.01452446 C-42.71248356 258.02263739 -35.2395961 258.02525447 -27.76669861 258.02651245 C-15.64362102 258.0287033 -3.52055014 258.03536426 8.6025238 258.04481506 C20.38182034 258.05398834 32.16111505 258.06106959 43.94041443 258.06532288 C45.02878023 258.06571696 45.02878023 258.06571696 46.13913322 258.06611901 C49.77899189 258.06742401 53.41885057 258.06868772 57.05870926 258.06993091 C87.27457217 258.08030454 117.49042694 258.09799786 147.70628357 258.12025452 C147.70628357 257.13025452 147.70628357 256.14025452 147.70628357 255.12025452 C146.60929264 255.12117631 145.51230171 255.1220981 144.38206863 255.12304783 C117.66487198 255.14526739 90.94767652 255.16168979 64.23047256 255.17206669 C51.31013409 255.17721852 38.38980172 255.18424 25.46946716 255.19569397 C14.20545502 255.20567482 2.94144731 255.21211604 -8.32256913 255.21434301 C-14.28432911 255.21564434 -20.24607642 255.21869359 -26.20783234 255.22598457 C-31.82526422 255.23279846 -37.44267828 255.23486058 -43.06011391 255.2333622 C-45.11592264 255.23363612 -47.17173201 255.23560927 -49.22753716 255.23945999 C-90.76470307 255.31341242 -90.76470307 255.31341242 -103.84449768 243.74916077 C-111.98484801 234.88842545 -111.91411785 222.06750456 -111.47291565 210.75648499 C-110.90899304 202.46052262 -109.33023883 194.2479664 -107.95289612 186.05726624 C-106.69473828 178.54280203 -105.4923885 171.01940365 -104.29371643 163.49525452 C-104.16507202 162.69077881 -104.03642761 161.8863031 -103.90388489 161.05744934 C-101.67673695 147.08893681 -99.81898275 133.09948825 -98.15309143 119.05384827 C-89.64916243 48.69343859 -89.64916243 48.69343859 -69.29371643 32.12025452 C-65.72959077 29.83079879 -62.6260908 28.12025452 -58.29371643 28.12025452 C-58.08746643 27.29525452 -57.88121643 26.47025452 -57.66871643 25.62025452 C-54.03840237 16.37945509 -46.53843306 9.15704132 -37.59059143 4.99525452 C-25.36352214 0.33732336 -12.90990817 -0.02915637 0 0 Z " fill="#FEFEFE" transform="translate(441.29371643066406,362.87974548339844)"/>
<path d="M0 0 C2.51347745 0.00373637 5.02695636 0.00658039 7.54043579 0.00857544 C13.44384782 0.01539036 19.34718196 0.03109795 25.25056231 0.05127442 C32.64359048 0.07598393 40.03662849 0.086599 47.4296875 0.09765625 C60.59118405 0.1190196 73.75261844 0.15270376 86.9140625 0.1953125 C86.76800693 2.70533034 86.61895964 5.21511351 86.46826172 7.72485352 C86.40761787 8.77493465 86.40761787 8.77493465 86.3457489 9.84622955 C85.91228812 16.99111245 85.02330715 24.04244225 84.0390625 31.1328125 C83.86125244 32.43677979 83.68344238 33.74074707 83.50024414 35.08422852 C82.19588869 44.50548533 80.70641391 53.85517017 78.9140625 63.1953125 C78.70265625 64.44570312 78.49125 65.69609375 78.2734375 66.984375 C75.46737171 82.74402357 70.17372995 100.19183865 57.296875 110.6953125 C52.53364983 113.69380179 47.25219286 115.4865459 41.9140625 117.1953125 C41.2746875 117.40285156 40.6353125 117.61039062 39.9765625 117.82421875 C35.72277528 118.58957819 31.3585073 118.26424254 27.05175781 118.22436523 C25.49859863 118.20998413 25.49859863 118.20998413 23.9140625 118.1953125 C23.83623535 119.48284424 23.83623535 119.48284424 23.75683594 120.79638672 C23.21950806 129.03503954 22.34623502 137.15140693 21.1640625 145.3203125 C20.80466138 147.86718381 20.44528768 150.414059 20.0859375 152.9609375 C19.89405434 154.30926958 19.70199414 155.65757648 19.50976562 157.00585938 C18.57098794 163.59745859 17.65070149 170.19164605 16.73223877 176.78610229 C16.51990068 178.31049264 16.30729432 179.83484563 16.09442139 181.35916138 C14.5884582 192.15017149 13.15943055 202.94880257 11.7890625 213.7578125 C10.66150022 222.64844323 9.44655257 231.50589463 7.9855957 240.34765625 C6.98937354 246.46663221 6.21866926 252.60333328 5.4765625 258.7578125 C4.4498091 267.26588001 3.25172069 275.73063164 1.9140625 284.1953125 C0.5998701 292.51482384 -0.58186956 300.83267385 -1.5859375 309.1953125 C-2.573315 317.41177604 -3.72912181 325.58413731 -5.0234375 333.7578125 C-6.67611769 344.19891857 -8.08152565 354.6599147 -9.40203857 365.14678955 C-10.46555714 373.57939601 -11.63151988 381.97529873 -13.01635742 390.3605957 C-13.98725943 396.33049886 -14.74059819 402.31549642 -15.4609375 408.3203125 C-16.79863063 419.44232727 -18.45288414 430.50662781 -20.19677734 441.57080078 C-21.44354548 449.58116086 -22.53233731 457.59789662 -23.51953125 465.64453125 C-24.94088812 477.22893174 -26.53280124 488.78428572 -28.19311523 500.33666992 C-28.6547067 503.55147507 -29.11170598 506.76691195 -29.56835938 509.98242188 C-29.86691769 512.0703511 -30.16573606 514.15824316 -30.46484375 516.24609375 C-30.59822647 517.18584549 -30.73160919 518.12559723 -30.86903381 519.09382629 C-31.5287318 523.66383891 -32.2556337 528.20846941 -33.09960938 532.74829102 C-34.05686529 537.91408776 -34.80686969 543.08836134 -35.48828125 548.296875 C-35.74149565 550.18880755 -35.99475221 552.08073445 -36.24804688 553.97265625 C-36.63517557 556.88770847 -37.02114012 559.80290987 -37.40600586 562.71826172 C-39.02302216 574.93548805 -40.81935111 587.0806251 -43.0859375 599.1953125 C-41.84457031 599.18113281 -40.60320312 599.16695312 -39.32421875 599.15234375 C-28.9356455 599.03367884 -16.60896013 603.94800274 -9.0859375 611.1953125 C-1.90389647 620.30041369 -0.5782572 629.19872321 -0.7109375 640.5078125 C-0.72108887 641.75747803 -0.73124023 643.00714355 -0.74169922 644.29467773 C-1.01232074 660.58336635 -4.32945357 675.68834763 -7.95239258 691.52124023 C-9.57620682 698.66223349 -10.9259282 705.70490888 -11.76171875 712.984375 C-12.0859375 715.1953125 -12.0859375 715.1953125 -13.0859375 716.1953125 C-16.10640102 716.30134484 -19.10411922 716.34208678 -22.12524414 716.34057617 C-23.54994774 716.34561409 -23.54994774 716.34561409 -25.00343323 716.35075378 C-28.16766648 716.3603084 -31.33184693 716.36221019 -34.49609375 716.36328125 C-36.69835939 716.36649446 -38.90062482 716.36985858 -41.10289001 716.37336731 C-45.73762505 716.37937243 -50.37234142 716.38120617 -55.00708008 716.38061523 C-60.90760537 716.38051439 -66.80800822 716.39407957 -72.70850468 716.41138744 C-77.26855502 716.42259272 -81.82857676 716.42453172 -86.38863945 716.42400551 C-88.56084039 716.42517617 -90.73304229 716.42954582 -92.90522957 716.43733788 C-105.14735776 716.47708517 -116.9797452 716.10691881 -129.0859375 714.1953125 C-129.92857651 714.07574188 -130.77121552 713.95617126 -131.63938904 713.83297729 C-145.20557212 711.86204144 -155.21641596 708.10876183 -164.0859375 697.1953125 C-182.83567716 666.33508525 -162.6269852 598.38145423 -157.68353271 565.05441284 C-156.2449277 555.33544481 -154.85419262 545.61001724 -153.47265625 535.8828125 C-153.24119565 534.25393605 -153.00972996 532.62506032 -152.77825928 530.9961853 C-152.42537533 528.51261167 -152.07251958 526.02903404 -151.71973419 523.5454464 C-147.7893133 495.87921853 -143.81344231 468.22113735 -139.63500977 440.59106445 C-138.18056785 430.92864042 -136.81913799 421.26660196 -135.640625 411.56640625 C-134.09180653 398.83910495 -132.20499182 386.16789226 -130.29949951 373.48980713 C-129.28776816 366.75224082 -128.28583071 360.01323283 -127.2890625 353.2734375 C-127.19090115 352.60976795 -127.09273979 351.9460984 -126.99160385 351.26231766 C-125.26420555 339.56417695 -123.67480063 327.85360813 -122.1812439 316.12368774 C-120.35078857 301.78216297 -118.22009465 287.49137805 -116.06100464 273.19604492 C-114.07848253 260.05554102 -112.21855765 246.916501 -110.57617188 233.72900391 C-109.20591777 222.84131467 -107.62743556 211.98818742 -106.0234375 201.1328125 C-105.82610519 199.79703156 -105.82610519 199.79703156 -105.62478638 198.43426514 C-105.42972 197.11401337 -105.42972 197.11401337 -105.23071289 195.76708984 C-104.97538251 194.03874299 -104.72009197 192.31039024 -104.46484375 190.58203125 C-104.34198502 189.75026367 -104.21912628 188.91849609 -104.09254456 188.06152344 C-102.80864278 179.34889076 -101.61707284 170.62508988 -100.45117188 161.89599609 C-100.04134744 158.86559645 -99.61919915 155.83705815 -99.1953125 152.80859375 C-97.3679533 139.73388942 -95.62214392 126.65281964 -93.96408081 113.55578613 C-93.22607675 107.74451257 -92.4747317 101.93495471 -91.72265625 96.12548828 C-91.30145051 92.87181837 -90.88517491 89.61757509 -90.47265625 86.36279297 C-83.150532 28.86756852 -83.150532 28.86756852 -65.4921875 13.0234375 C-57.63011484 7.05030437 -49.70189769 4.0841506 -40.0859375 2.1953125 C-39.17854828 2.01292023 -38.27115906 1.83052795 -37.33627319 1.64260864 C-24.96688753 -0.4687355 -12.50685972 -0.05490055 0 0 Z " fill="#00339F" transform="translate(238.0859375,168.8046875)"/>
<path d="M0 0 C10.46865482 -0.02347733 20.93730308 -0.04109108 31.40597916 -0.05181217 C36.27033691 -0.05696539 41.13467627 -0.06391994 45.99902344 -0.07543945 C83.18543053 -0.16101331 83.18543053 -0.16101331 100.046875 0.4296875 C101.12197327 0.46710556 102.19707153 0.50452362 103.30474854 0.54307556 C136.48151449 1.90338904 136.48151449 1.90338904 148 13.6875 C163.5247195 33.41525331 155.91613726 68.42579159 153.29306185 91.1936889 C153.05487526 93.27364832 152.82240565 95.3541779 152.591506 97.43495822 C149.29947483 127.06187611 145.22961184 156.57598124 140.94937691 186.07451604 C139.89435911 193.34857133 138.85297389 200.62456486 137.81175548 207.90060596 C135.94805149 220.92168342 134.0743358 233.94129762 132.19384766 246.95996094 C130.39194877 259.43468939 128.59558395 271.91019561 126.80615234 284.38671875 C126.6954564 285.15851757 126.58476046 285.93031638 126.4707101 286.72550304 C126.02499745 289.83325333 125.57931461 292.94100789 125.1336731 296.04876838 C121.52038835 321.24570426 117.90122495 346.44180914 114.26367188 371.63525391 C114.08021367 372.90591367 113.89675547 374.17657343 113.70773792 375.48573804 C110.95437582 394.54096875 108.15065008 413.58831911 105.27367401 432.62529945 C103.10154746 447.04227669 101.18283959 461.4869347 99.32252073 475.94699991 C98.37385685 483.30510288 97.31388861 490.63270359 96.09057617 497.95019531 C94.75581367 506.13274778 93.81048428 514.36772543 92.80685425 522.59588623 C91.66723992 531.91931266 90.41767474 541.21384806 89 550.5 C87.5189296 560.23295509 86.20486356 569.97945661 85 579.75 C84.9175 580.4174826 84.835 581.08496521 84.75 581.77267456 C84.33192227 585.1573588 83.91548901 588.54224316 83.5 591.92724609 C81.21483792 610.54272533 78.88251265 629.10854516 75.44824219 647.5546875 C75.03014909 649.83552651 74.63868219 652.11894488 74.2578125 654.40625 C71.24811877 672.13983754 66.39024947 690.99158493 52 703 C23.40101391 720.98523675 -13.83533512 716.39243817 -46.13726807 716.20599365 C-52.11166162 716.1748722 -58.086095 716.16151196 -64.06054688 716.14648438 C-75.70713373 716.11465874 -87.35354681 716.06370497 -99 716 C-98.44565844 707.80505389 -97.65628051 699.7021131 -96.4765625 691.57421875 C-96.32972015 690.54295364 -96.18287781 689.51168854 -96.03158569 688.44917297 C-95.72264259 686.28686762 -95.41163924 684.12485567 -95.09863281 681.96313477 C-94.62768076 678.70604006 -94.16492659 675.44785636 -93.703125 672.18945312 C-86.14524397 619.27193808 -86.14524397 619.27193808 -69.12109375 605.43359375 C-63.68172664 601.75726276 -57.3568928 599.01062588 -50.76953125 598.68359375 C-49.96708984 598.64169922 -49.16464844 598.59980469 -48.33789062 598.55664062 C-47.50451172 598.51732422 -46.67113281 598.47800781 -45.8125 598.4375 C-44.5450293 598.37272461 -44.5450293 598.37272461 -43.25195312 598.30664062 C-41.16815567 598.20068482 -39.08409897 598.0998498 -37 598 C-36.74476562 596.12248047 -36.74476562 596.12248047 -36.484375 594.20703125 C-33.64895785 573.37010496 -30.77126911 552.53903513 -27.87814331 531.71005249 C-27.56003471 529.41975055 -27.24205348 527.12943095 -26.92407227 524.83911133 C-25.98013737 518.04214302 -25.03505452 511.24534419 -24.08364868 504.44941711 C-23.5756958 500.82057076 -23.06889052 497.19156467 -22.5625 493.5625 C-22.41086395 492.47643967 -22.41086395 492.47643967 -22.25616455 491.36843872 C-20.96825566 482.13145826 -19.71369973 472.89053412 -18.4921875 463.64453125 C-18.36428833 462.67660645 -18.23638916 461.70868164 -18.10461426 460.71142578 C-17.84515262 458.74717488 -17.58571256 456.78292113 -17.32629395 454.81866455 C-17.19799194 453.84725525 -17.06968994 452.87584595 -16.9375 451.875 C-16.80984253 450.90810242 -16.68218506 449.94120483 -16.55065918 448.94500732 C-14.94678958 436.81953881 -13.25012591 424.72172951 -11.32788086 412.64208984 C-10.08850326 404.79161289 -9.09137223 396.92431887 -8.14379883 389.03393555 C-7.11005868 380.56144308 -5.81205775 372.14099721 -4.48046875 363.7109375 C-3.35123629 356.48729778 -2.37155653 349.25898315 -1.5 342 C-0.51262223 333.7835342 0.64325007 325.61118609 1.9375 317.4375 C3.56545137 307.14785318 4.95163629 296.84110119 6.25073242 286.50509644 C7.34614397 277.81219679 8.55599573 269.15185191 9.9375 260.5 C11.9776524 247.71728129 13.59137694 234.88648204 15.16186523 222.0390625 C16.17433131 213.84698742 17.35419457 205.73034492 18.84632874 197.61190796 C20.5591679 188.14448715 21.74299157 178.59890576 23 169.0625 C24.76964917 155.66224641 26.69789011 142.31953072 29 129 C29.39740565 126.62526259 29.79355425 124.25031383 30.1875 121.875 C30.45833333 120.25 30.72916667 118.625 31 117 C30.44054688 116.97421875 29.88109375 116.9484375 29.3046875 116.921875 C17.68219411 116.09970505 6.28607012 113.66115971 -2 105 C-11.92605278 92.84386488 -13.17966649 78.91364379 -11.79785156 63.78710938 C-10.45784739 52.51084788 -7.87190024 41.42690419 -5.24560547 30.39306641 C-2.90598302 20.34663262 -1.44200353 10.20588223 0 0 Z " fill="#00339F" transform="translate(1695,166)"/>
<path d="M0 0 C-0.18755859 0.60223389 -0.37511719 1.20446777 -0.56835938 1.82495117 C-6.36124102 20.73024658 -9.51170965 39.94253655 -11.75390625 59.546875 C-12.04289651 62.05224224 -12.33334747 64.55744128 -12.625 67.0625 C-12.70163879 67.72155334 -12.77827759 68.38060669 -12.85723877 69.05963135 C-14.76887744 85.32081103 -17.27796022 101.49359693 -19.74043655 117.6785965 C-22.15980455 133.58129979 -24.54492228 149.47834643 -26.5625 165.4375 C-28.32098309 179.33645552 -30.35244051 193.18400095 -32.47042847 207.03268433 C-33.83991878 215.99928268 -35.18960202 224.96889411 -36.53857422 233.93859863 C-36.97244723 236.81719687 -37.40987578 239.69523617 -37.84765625 242.57324219 C-40.3460014 259.09947786 -42.44655922 275.4518556 -42.5625 292.1875 C-42.58473633 294.04930908 -42.58473633 294.04930908 -42.60742188 295.94873047 C-42.51417816 303.97768025 -41.70688188 312.44459698 -36.44921875 318.90576172 C-21.76900085 333.17345411 1.57668961 331.43646259 20.31665039 331.38818359 C22.97427435 331.39225398 25.63187326 331.39749122 28.28948975 331.40411377 C34.7329661 331.41738784 41.17633706 331.41460088 47.61981738 331.40587585 C52.86530707 331.3990705 58.11076745 331.39819484 63.3562603 331.4014473 C64.48083067 331.40213684 64.48083067 331.40213684 65.62811963 331.40284032 C67.1517588 331.40379962 68.67539797 331.40477227 70.19903713 331.4057581 C84.45742796 331.41429455 98.71576076 331.40450749 112.97414207 331.388357 C125.16500079 331.37497466 137.35577371 331.37726809 149.54663086 331.39111328 C163.74694475 331.40723338 177.94720777 331.4134506 192.14752954 331.40427649 C193.6673628 331.40332099 195.18719607 331.40237788 196.70702934 331.4014473 C197.45454666 331.40098447 198.20206398 331.40052164 198.97223334 331.40004479 C204.19786666 331.39747266 209.42346729 331.40178757 214.64909554 331.40888596 C221.03744085 331.41737386 227.42567587 331.41487086 233.81400884 331.39904372 C237.0632813 331.39125455 240.3123369 331.38956958 243.56161308 331.39799118 C257.97345359 331.43186914 271.84558122 330.82210889 286.05016035 328.26923048 C288 328 288 328 292 328 C291.58995742 334.56068135 286.73854945 339.26145055 282.3125 343.6875 C268.15983014 354.47393381 247.45034524 356.17229819 230.25900269 356.12698364 C228.86744404 356.12932363 228.86744404 356.12932363 227.4477731 356.13171089 C224.36604439 356.1356713 221.28436572 356.13255025 218.20263672 356.12939453 C215.98037691 356.13075105 213.75811732 356.13253239 211.53585815 356.13470459 C205.50915776 356.13925702 199.48247452 356.13749624 193.45577383 356.1343255 C187.10569814 356.13178115 180.75562385 356.13414608 174.4055481 356.13571167 C163.026434 356.13764776 151.64732852 356.13454333 140.26821615 356.12945233 C130.04192538 356.12501737 119.81564601 356.12573362 109.58935547 356.13037109 C97.65039591 356.1357829 85.71144324 356.13768074 73.77248204 356.13475883 C67.47798651 356.1332212 61.18349874 356.13293059 54.88900375 356.13629532 C10.19433435 356.15663973 10.19433435 356.15663973 -12.06612945 355.67265296 C-13.7486071 355.6361347 -15.43114045 355.60207553 -17.11372399 355.57081437 C-33.2432173 355.25815062 -50.10930631 354.5181008 -62.1875 342.3125 C-72.10492951 329.18943671 -68.1740957 308.6887242 -66.53515625 293.4609375 C-66.08657544 289.24260612 -65.82745813 285.03231753 -65.59375 280.796875 C-65.13833818 273.7426298 -64.08724959 266.91578192 -62.8170166 259.96746826 C-59.65403293 242.52832878 -57.29941628 224.97913989 -55.01439285 207.40799713 C-54.75288983 205.39722075 -54.49049819 203.3865618 -54.22799683 201.37591553 C-52.17526501 185.85696008 -52.17526501 185.85696008 -50.39257812 170.30566406 C-50.30526428 169.46605133 -50.21795044 168.6264386 -50.12799072 167.76138306 C-49.97616881 166.2600092 -49.83139751 164.75789496 -49.69573975 163.25497437 C-49.21512883 158.41942007 -49.21512883 158.41942007 -48.02105713 156.09143066 C-46.88038719 153.75499716 -46.51708191 151.81349221 -46.16210938 149.24169922 C-46.02857056 148.29906219 -45.89503174 147.35642517 -45.75744629 146.38522339 C-45.62092651 145.36864655 -45.48440674 144.3520697 -45.34375 143.3046875 C-45.19595093 142.24323517 -45.04815186 141.18178284 -44.89587402 140.08816528 C-44.58336273 137.83413526 -44.27424827 135.57963207 -43.96826172 133.32470703 C-43.50820988 129.93548258 -43.03832175 126.54774692 -42.56640625 123.16015625 C-41.14287936 112.87050991 -39.79667059 102.58188741 -38.68939209 92.2532959 C-31.04372697 21.33633046 -31.04372697 21.33633046 -13.86328125 6.328125 C-4.98529412 0 -4.98529412 0 0 0 Z " fill="#A7A6A6" transform="translate(797,392)"/>
<path d="M0 0 C1.2485686 0.00138269 1.2485686 0.00138269 2.5223608 0.00279331 C3.47453487 0.00141865 4.42670895 0.00004398 5.40773678 -0.00137234 C6.46077496 0.00222294 7.51381313 0.00581821 8.59876156 0.00952244 C10.25221081 0.0093034 10.25221081 0.0093034 11.93906307 0.00907993 C15.60226021 0.00977961 19.26540723 0.01757459 22.92859554 0.02539158 C25.46065398 0.02725556 27.99271277 0.02867956 30.52477169 0.0296793 C36.52067179 0.03311437 42.51655019 0.04100514 48.51244158 0.05102879 C55.33699987 0.06219105 62.16155901 0.06770066 68.98612416 0.07272422 C83.02815593 0.08318779 97.07017162 0.10078653 111.11218929 0.12304783 C109.88298346 11.57619446 108.51425661 22.99714284 106.94031429 34.40820408 C106.73319943 35.9209152 106.52623344 37.4336467 106.31940365 38.94639683 C105.88720787 42.10370865 105.45343522 45.26079834 105.01843929 48.41772556 C104.58624676 51.55484445 104.15583286 54.69219715 103.72742367 57.82983494 C100.34208092 82.61856179 96.73511708 107.36637461 93.11218929 132.12304783 C55.49218929 132.12304783 17.87218929 132.12304783 -20.88781071 132.12304783 C-13.39297813 75.37645833 -13.39297813 75.37645833 -10.08312321 54.10351658 C-8.03794581 40.72450554 -6.35359457 27.29193795 -4.63582706 13.86763096 C-4.38996009 11.95232104 -4.138982 10.03766937 -3.88781071 8.12304783 C-3.72248844 6.82705662 -3.55716618 5.53106541 -3.38683414 4.19580173 C-2.73436923 0.17822666 -2.73436923 0.17822666 0 0 Z " fill="#D54309" transform="translate(1333.8878107070923,488.8769521713257)"/>
<path d="M0 0 C36.96 0 73.92 0 112 0 C112 11.23582766 112 11.23582766 111.265625 15.7578125 C111.10578125 16.77875 110.9459375 17.7996875 110.78125 18.8515625 C110.6059375 19.93179687 110.430625 21.01203125 110.25 22.125 C108.65197934 32.39798996 107.25096097 42.68034805 106 53 C104.66902922 63.93661102 103.1719902 74.83538129 101.5065918 85.72680664 C99.90369685 96.34133987 98.58648962 106.98706197 97.30664062 117.64453125 C97.15001953 118.93617188 96.99339844 120.2278125 96.83203125 121.55859375 C96.69514893 122.70642334 96.5582666 123.85425293 96.41723633 125.03686523 C96 128 96 128 95 132 C57.71 132 20.42 132 -18 132 C-18 123.00139384 -18 123.00139384 -17.32910156 118.62670898 C-17.18169525 117.64507782 -17.03428894 116.66344666 -16.88241577 115.65206909 C-16.72012482 114.61059723 -16.55783386 113.56912537 -16.390625 112.49609375 C-16.22390289 111.39290802 -16.05718079 110.28972229 -15.88540649 109.15310669 C-15.52934359 106.79906301 -15.17080627 104.44539249 -14.80999756 102.09207153 C-13.86824287 95.94613427 -12.94530777 89.79738431 -12.0234375 83.6484375 C-11.8427774 82.44504227 -11.66211731 81.24164703 -11.47598267 80.00178528 C-10.16165272 71.20038047 -8.97069147 62.3934942 -7.875 53.5625 C-5.57049071 35.66414451 -2.74403986 17.83625907 0 0 Z " fill="#D54309" transform="translate(909,489)"/>
<path d="M0 0 C51.38906752 -0.20900322 51.38906752 -0.20900322 73 1 C69.42185342 4.62418891 65.75716442 8.12478991 62 11.5625 C61.49210937 12.03107422 60.98421875 12.49964844 60.4609375 12.98242188 C58.14806697 15.10255319 55.81986146 17.14087417 53.34765625 19.07421875 C37.99559086 31.66751032 38.59122717 56.47126003 36.5 74.5625 C36.19404948 77.13897484 35.886913 79.71530912 35.57861328 82.29150391 C34.97857283 87.31026276 34.38244369 92.32945537 33.79003906 97.34912109 C32.86126028 105.19679086 31.88914449 113.03789605 30.875 120.875 C30.72490479 122.03660645 30.57480957 123.19821289 30.42016602 124.39501953 C29.07293066 134.68024041 27.59393736 144.94632163 26.10830688 155.21228027 C24.83565491 164.00653547 23.61741127 172.80146021 22.5625 181.625 C21.04382369 194.29719645 19.140037 206.91342335 17.24438477 219.53369141 C15.88983542 228.60124128 14.64466878 237.67294129 13.53125 246.7734375 C12.04361193 258.91983885 10.2974531 271.02110375 8.5 283.125 C7.90466693 287.14820508 7.31095456 291.17164573 6.71875 295.1953125 C6.57389664 296.17945633 6.42904327 297.16360016 6.27980042 298.17756653 C4.89968653 307.60091019 3.61554972 317.03647121 2.34222412 326.47473145 C1.82125331 330.31897015 1.28859073 334.16155426 0.75390625 338.00390625 C0.65604324 338.70736679 0.55818024 339.41082733 0.45735168 340.13560486 C0.260214 341.55195236 0.06299403 342.9682884 -0.13430786 344.38461304 C-0.45203245 346.66688939 -0.76895615 348.94927587 -1.08569336 351.23168945 C-2.07453535 358.35584336 -3.06638176 365.47951523 -4.0703125 372.6015625 C-5.44759717 382.41806519 -6.8116609 392.23185793 -7.9609375 402.078125 C-8.04095505 402.76365448 -8.1209726 403.44918396 -8.20341492 404.15548706 C-8.32400017 405.18912888 -8.32400017 405.18912888 -8.44702148 406.24365234 C-13.76261516 451.77767843 -13.76261516 451.77767843 -20 473 C-20.31710937 474.08925781 -20.63421875 475.17851563 -20.9609375 476.30078125 C-22.94342216 482.66852197 -25.42623584 488.36579201 -29 494 C-29.556875 494.886875 -30.11375 495.77375 -30.6875 496.6875 C-41.34460019 507.34460019 -57.69828403 511.07911549 -72.3125 511.125 C-73.529375 511.08375 -74.74625 511.0425 -76 511 C-75.505 509.02 -75.505 509.02 -75 507 C-75.66 506.67 -76.32 506.34 -77 506 C-76.1646875 505.76216797 -76.1646875 505.76216797 -75.3125 505.51953125 C-65.46309568 502.50814243 -58.01858857 497.90589049 -52.75463867 488.85986328 C-49.44561462 482.43650287 -47.28175461 476.0546488 -45.5 469.0625 C-45.20303223 467.90427734 -44.90606445 466.74605469 -44.60009766 465.55273438 C-41.40035968 452.44986781 -39.62547721 439.17848984 -37.89523315 425.81729126 C-37.20350696 420.48209328 -36.46209124 415.15580969 -35.6875 409.83203125 C-35.57842316 409.08215439 -35.46934631 408.33227753 -35.35696411 407.55967712 C-35.13816335 406.05686994 -34.91926134 404.55407749 -34.70025635 403.05130005 C-33.06645852 391.80556516 -31.5301059 380.55288983 -30.16137695 369.27148438 C-28.5818282 356.37274715 -26.73308612 343.50962199 -24.92922974 330.64076233 C-23.94189984 323.59534036 -22.96937881 316.54791343 -22 309.5 C-20.50792244 298.66555985 -19.00581346 287.83253731 -17.5 277 C-15.97399609 266.02154312 -14.45143044 255.04263003 -12.9375 244.0625 C-12.69797607 242.32722046 -12.69797607 242.32722046 -12.45361328 240.55688477 C-11.60868738 234.43181535 -10.76846799 228.30613549 -9.93359375 222.1796875 C-9.75642822 220.88409912 -9.5792627 219.58851074 -9.39672852 218.25366211 C-9.06113059 215.79894465 -8.72687367 213.34404329 -8.39428711 210.88891602 C-7.65970123 205.5244704 -6.87866362 200.1775463 -5.96875 194.83984375 C-5.02495295 189.2835013 -4.29889989 183.71945342 -3.625 178.125 C-2.56169607 169.38161532 -1.42611688 160.65019346 -0.24609375 151.921875 C1.3337879 140.15460639 2.85215027 128.38025649 4.34011841 116.60102463 C4.69269744 113.81009178 5.04596432 111.01924677 5.39941406 108.22842407 C6.85072271 96.76586052 6.85072271 96.76586052 8.29370117 85.30224609 C8.89067264 80.54680796 9.49239637 75.79199105 10.09712029 71.03753281 C10.32245714 69.25909874 10.54612167 67.48045179 10.76791573 65.70157242 C14.88502775 32.70114629 14.88502775 32.70114629 21 24 C21.66 24 22.32 24 23 24 C23.2671582 23.4030835 23.53431641 22.80616699 23.80957031 22.19116211 C25.02054013 19.96219284 26.18576373 18.6433362 28.046875 16.94140625 C28.645 16.39033203 29.243125 15.83925781 29.859375 15.27148438 C30.48328125 14.70751953 31.1071875 14.14355469 31.75 13.5625 C32.3584375 13.00240234 32.966875 12.44230469 33.59375 11.86523438 C37.31617384 8.45698947 41.11398981 5.23834183 45 2 C30.15 1.67 15.3 1.34 0 1 C0 0.67 0 0.34 0 0 Z " fill="#D9D8D7" transform="translate(1164,213)"/>
<path d="M0 0 C-0.18900879 0.6693457 -0.37801758 1.33869141 -0.57275391 2.02832031 C-8.65679747 31.09033021 -12.52958962 61.22290104 -16.30078125 91.09619141 C-17.20026131 98.1884706 -18.16485622 105.2355477 -19.51098633 112.25976562 C-20.76310909 119.27615398 -21.5734048 126.37221162 -22.5 133.4375 C-23.89721524 143.85111983 -23.89721524 143.85111983 -25.10546875 148.68359375 C-26.34223334 153.9122315 -26.33015985 159.08656554 -26.3125 164.4375 C-26.32861328 165.41009766 -26.34472656 166.38269531 -26.36132812 167.38476562 C-26.36731861 176.35252259 -24.99685611 184.98441352 -19 192 C-15.87646165 194.13559394 -15.87646165 194.13559394 -12.3125 195.75 C-11.15363281 196.32234375 -9.99476563 196.8946875 -8.80078125 197.484375 C-0.19231549 201.15860757 8.96993194 201.57137656 18.19506836 202.09912109 C18.89782831 202.14088179 19.60058826 202.18264249 20.32464397 202.22566867 C40.10723717 203.37465224 59.91270174 203.35353455 79.72217298 203.40471697 C85.09923078 203.42063579 90.47623645 203.44732959 95.85325623 203.4727478 C105.9775622 203.51903787 116.10187856 203.55601823 126.22623438 203.58942068 C137.77699402 203.62799993 149.32770067 203.6773127 160.87841523 203.72740483 C184.58557059 203.82998183 208.29276017 203.91947695 232 204 C231.74421622 206.89787973 231.47099197 209.79231034 231.1875 212.6875 C231.08211914 213.91243164 231.08211914 213.91243164 230.97460938 215.16210938 C230.39281582 220.9102297 229.46274047 224.98343987 224.80078125 228.80078125 C221.21737243 230.33509995 218.00736921 230.33005971 214.1875 230.1875 C213.49462891 230.17396484 212.80175781 230.16042969 212.08789062 230.14648438 C210.39158735 230.11138845 208.69568864 230.05758943 207 230 C207 229.01 207 228.02 207 227 C205.90300907 227.00092179 204.80601814 227.00184359 203.67578506 227.00279331 C176.95858841 227.02501287 150.24139295 227.04143527 123.524189 227.05181217 C110.60385052 227.056964 97.68351815 227.06398549 84.76318359 227.07543945 C73.49917145 227.0854203 62.23516374 227.09186153 50.9711473 227.09408849 C45.00938732 227.09538982 39.04764001 227.09843908 33.08588409 227.10573006 C27.46845221 227.11254394 21.85103815 227.11460607 16.23360252 227.11310768 C14.17779379 227.1133816 12.12198442 227.11535475 10.06617928 227.11920547 C-31.47098664 227.19315791 -31.47098664 227.19315791 -44.55078125 215.62890625 C-52.69113158 206.76817093 -52.62040142 193.94725004 -52.17919922 182.63623047 C-51.61527661 174.3402681 -50.0365224 166.12771188 -48.65917969 157.93701172 C-47.40102185 150.42254752 -46.19867207 142.89914914 -45 135.375 C-44.87135559 134.57052429 -44.74271118 133.76604858 -44.61016846 132.93719482 C-42.38302052 118.96868229 -40.52526632 104.97923374 -38.859375 90.93359375 C-30.35170015 20.54219135 -30.35170015 20.54219135 -10 4 C-3.67567568 0 -3.67567568 0 0 0 Z " fill="#A6A5A5" transform="translate(382,391)"/>
<path d="M0 0 C-3.454104 9.78662799 -9.84748828 16.72096748 -19.0625 21.25 C-29.15784279 25.53737661 -38.87386305 27.1161955 -49.73071289 27.56811523 C-50.71480416 27.60945052 -51.69889544 27.65078581 -52.71280766 27.69337368 C-67.27794335 28.23309271 -81.85647159 28.12690233 -96.42914081 28.10139394 C-100.68380233 28.09504421 -104.93846496 28.09454759 -109.19313049 28.09336853 C-117.21054623 28.09028886 -125.22794795 28.08212195 -133.24535757 28.07201904 C-142.38960861 28.06075199 -151.5338604 28.05532105 -160.67811668 28.05032361 C-179.45208566 28.0399356 -198.2260417 28.02240297 -217 28 C-217.19774112 29.61127415 -217.19774112 29.61127415 -217.39947701 31.2550993 C-217.57706266 32.69161351 -217.75470804 34.12812034 -217.93240356 35.56462097 C-218.01873204 36.26937797 -218.10506052 36.97413497 -218.19400501 37.70024824 C-219.03141232 44.45196524 -220.10145046 51.15637033 -221.2421875 57.86328125 C-221.45183136 59.10192429 -221.66147522 60.34056732 -221.87747192 61.616745 C-222.31752381 64.20585545 -222.75958561 66.79462506 -223.20361328 69.38305664 C-223.65261522 72.01094254 -224.09780299 74.63907189 -224.53564453 77.26879883 C-225.17760783 81.11460351 -225.83327883 84.95784785 -226.4921875 88.80078125 C-226.77991531 90.54334953 -226.77991531 90.54334953 -227.07345581 92.32112122 C-230.38323429 111.29061972 -238.59537986 127.71706565 -254.3671875 139.33984375 C-264.99253182 146.03980122 -276.74122794 150.61952385 -289.375 151.25 C-293.82533628 152.17075923 -294.96131456 153.71782923 -297.92578125 156.96875 C-321.06077268 179.62448548 -360.7533214 177.18158724 -390.4375 177.0625 C-392.63346252 177.05747269 -394.82942615 177.05291197 -397.02539062 177.04882812 C-402.35028528 177.03792534 -407.67513724 177.02128574 -413 177 C-410.3622013 174.32836186 -407.75580855 171.68896257 -404.84375 169.31640625 C-404.29589844 168.86330078 -403.74804688 168.41019531 -403.18359375 167.94335938 C-402.06311085 167.02435542 -400.94071666 166.10767677 -399.81640625 165.19335938 C-396.06357759 162.08071914 -393.04386257 158.81018713 -390 155 C-388 153 -388 153 -384.31762695 152.82055664 C-382.70769847 152.84105227 -381.09788112 152.87171112 -379.48828125 152.91015625 C-377.69434481 152.93323588 -375.90039885 152.95558476 -374.10644531 152.97729492 C-373.16079712 152.99182709 -372.21514893 153.00635925 -371.24084473 153.02133179 C-356.68165757 153.22601251 -342.24501468 153.14750179 -327.75 151.6875 C-326.56575439 151.56963135 -325.38150879 151.4517627 -324.16137695 151.33032227 C-306.77724305 149.44050159 -306.77724305 149.44050159 -290.625 143.1875 C-289.95855469 142.83421631 -289.29210938 142.48093262 -288.60546875 142.11694336 C-286.72125051 141.10344147 -284.8581205 140.06042652 -283 139 C-282.10023438 138.49210938 -281.20046875 137.98421875 -280.2734375 137.4609375 C-271.72628403 132.20341011 -266.27613166 125.13129346 -261.75 116.3125 C-261.43281006 115.70229004 -261.11562012 115.09208008 -260.78881836 114.46337891 C-254.28206225 101.07385241 -252.55502365 86.23422515 -250.375 71.6875 C-249.92590448 68.73522928 -249.47419565 65.78338958 -249.0194397 62.83198547 C-248.73962649 61.0115844 -248.46330849 59.19064103 -248.19125366 57.36906433 C-247.45697844 52.54425527 -246.54521806 47.80772346 -245.45205688 43.05180359 C-244.83256034 40.24002197 -244.40327075 37.41653127 -244 34.56640625 C-243.835 33.42236328 -243.67 32.27832031 -243.5 31.09960938 C-243.335 29.93236328 -243.17 28.76511719 -243 27.5625 C-242.6692009 25.23010792 -242.33590629 22.89806828 -242 20.56640625 C-241.855625 19.54490479 -241.71125 18.52340332 -241.5625 17.47094727 C-241.09013563 14.55618851 -240.54855743 11.67673737 -239.96484375 8.7830658 C-239.69401978 7.43785811 -239.69401978 7.43785811 -239.41772461 6.06547451 C-239.21095093 5.04306463 -239.21095093 5.04306463 -239 4 C-237.33823526 3.99641747 -237.33823526 3.99641747 -235.64289951 3.99276257 C-208.63180294 3.93385295 -181.62079475 3.85789962 -154.60979557 3.76428509 C-141.54724499 3.7194037 -128.48472121 3.67997147 -115.42211914 3.65356445 C-104.0309246 3.63052227 -92.6398154 3.59705508 -81.24868864 3.55129844 C-75.22248712 3.52744997 -69.1963697 3.50866643 -63.17012215 3.50238609 C-57.48609824 3.4962972 -51.80228928 3.47616126 -46.11834526 3.44572449 C-44.04368971 3.43700485 -41.969006 3.43320891 -39.89433289 3.43499184 C-28.77327939 3.44152545 -18.24367121 2.91302816 -7.33798885 0.64104939 C-4 0 -4 0 0 0 Z " fill="#A7A7A7" transform="translate(1512,720)"/>
<path d="M0 0 C6.93 0 13.86 0 21 0 C21 5.98390738 20.79594149 11.34947155 20 17.1875 C19.12590938 24.31956173 18.77915827 31.37802283 18.75 38.5625 C18.74097656 39.46572998 18.73195313 40.36895996 18.72265625 41.29956055 C18.76018292 49.75947997 19.76431798 59.02889528 25 66 C49.61869147 87.08810394 102.77213067 78.15113349 133.11179185 78.1343255 C139.21480237 78.13175714 145.31781155 78.13415156 151.42082214 78.13571167 C161.65546951 78.1375198 171.8901096 78.13516222 182.12475586 78.13037109 C193.8957559 78.12492381 205.66673862 78.12670003 217.43773824 78.1321975 C227.61862198 78.13675882 237.79950057 78.1373647 247.98038501 78.13475883 C254.02870796 78.13321351 260.07702282 78.13295384 266.12534523 78.13629532 C271.8113103 78.13921854 277.49725336 78.13711805 283.18321609 78.13140106 C285.24893978 78.13009735 287.31466537 78.13042595 289.38038826 78.13266373 C300.03422478 78.14312665 310.66404192 78.00371867 321.30937195 77.55441284 C322.23800515 77.51567712 323.16663835 77.4769414 324.12341195 77.43703187 C338.71473656 76.80343938 338.71473656 76.80343938 353 74 C350.75814108 82.96743568 344.72594812 89.27155088 337 94 C334.06143331 95.51667958 331.09256973 96.83098739 328 98 C327.19635954 98.32483462 326.39271908 98.64966925 325.56472588 98.98434734 C320.6402335 100.38742122 315.78523394 100.73209441 310.69094849 101.1098175 C309.03401024 101.23624003 309.03401024 101.23624003 307.34359848 101.36521655 C295.54125232 102.20026572 283.77115898 102.27451097 271.94482422 102.24291992 C269.55483956 102.24399669 267.16485517 102.24594119 264.77487183 102.24867249 C258.3658949 102.25346048 251.95698917 102.24594183 245.54802084 102.23571944 C239.48048228 102.22774145 233.41295032 102.22855958 227.34540762 102.22899476 C215.32189368 102.22949237 203.2984066 102.220416 191.27490234 102.20581055 C179.67138175 102.19172305 168.06788474 102.18464034 156.46435547 102.18530273 C155.74912692 102.18534269 155.03389837 102.18538265 154.29699622 102.18542381 C153.58286717 102.18546417 152.86873811 102.18550452 152.13296878 102.1855461 C138.82768266 102.1862401 125.52240633 102.18032317 112.21712341 102.17139288 C107.5533676 102.1684068 102.88961366 102.16732783 98.22585678 102.16686058 C91.92352624 102.16584525 85.62121979 102.15965326 79.31889725 102.14969444 C77.02580666 102.14681009 74.7327133 102.14553565 72.43962097 102.14612198 C61.1619992 102.1479122 49.90628909 102.03321169 38.63772583 101.55342102 C37.72819904 101.51474511 36.81867225 101.47606921 35.88158405 101.4362213 C31.28102298 101.21917415 26.68783365 100.92989683 22.0963726 100.56770611 C21.21991486 100.49887586 20.34345712 100.43004562 19.44044006 100.35912961 C15.56764632 99.78921809 12.4850418 98.24848975 9.125 96.3125 C8.50109375 95.98572266 7.8771875 95.65894531 7.234375 95.32226562 C0.91272544 91.83468892 -3.04748116 87.29397784 -5.3125 80.3125 C-11.41048602 57.93662478 -4.84680498 31.12363101 -1.9296875 8.484375 C-1.77483887 7.28006836 -1.61999023 6.07576172 -1.46044922 4.83496094 C-1 2 -1 2 0 0 Z " fill="#A6A5A5" transform="translate(321,645)"/>
<path d="M0 0 C1.40978393 2.81956786 0.34729067 4.51092068 -0.59179688 7.375 C-0.82962891 8.07625 -1.06746094 8.7775 -1.3125 9.5 C-4.63562373 19.34629253 -6.23622301 29.12565522 -7.375 39.4375 C-8.40459828 48.38134371 -9.58729513 57.28648876 -10.9375 66.1875 C-12.36179371 75.59339211 -13.69564301 85.00574578 -14.9375 94.4375 C-16.39592315 105.50609585 -17.89656453 116.56763233 -19.4375 127.625 C-19.59471024 128.75347855 -19.59471024 128.75347855 -19.75509644 129.90475464 C-20.28920613 133.73767791 -20.82390216 137.57051907 -21.35888672 141.40332031 C-21.9923597 145.9431098 -22.62352242 150.48321814 -23.25390625 155.0234375 C-23.35678452 155.76436646 -23.45966278 156.50529541 -23.56565857 157.26867676 C-23.98130104 160.26255657 -24.39683688 163.25645115 -24.81222534 166.25036621 C-25.85047355 173.73353942 -26.88941161 181.21660343 -27.93746948 188.69841003 C-28.45927806 192.42380533 -28.97989799 196.1493661 -29.5 199.875 C-29.60246033 200.60862762 -29.70492065 201.34225525 -29.81048584 202.09811401 C-31.59533646 214.89750579 -33.2781813 227.70916815 -34.94525146 240.52435303 C-36.15743643 249.8249516 -37.40365005 259.11268296 -38.93373108 268.36735535 C-39.78016927 273.52601936 -40.54240729 278.69111285 -41.24609375 283.87109375 C-41.4331765 285.2462339 -41.4331765 285.2462339 -41.6240387 286.64915466 C-44.25525446 306.17611291 -46.68099402 325.73128234 -49.16333008 345.27758789 C-49.8769004 350.8948878 -50.5919966 356.51199167 -51.30859375 362.12890625 C-51.42464336 363.03876534 -51.54069298 363.94862442 -51.66025925 364.88605499 C-53.27152468 377.50143547 -54.95276526 390.10435129 -56.71592712 402.69944763 C-57.5774899 408.86915961 -58.3979889 415.03954034 -59.125 421.2265625 C-59.27453125 422.48210937 -59.4240625 423.73765625 -59.578125 425.03125 C-59.86751845 427.49645349 -60.14832543 429.96267565 -60.421875 432.4296875 C-61.59697439 442.11412734 -63.27953391 451.63929408 -69.8125 459.25 C-70.86050781 460.47396484 -70.86050781 460.47396484 -71.9296875 461.72265625 C-77.50645515 467.85710066 -83.3467765 473.03648405 -90 478 C-90.33 477.34 -90.66 476.68 -91 476 C-90.35998047 474.21335937 -90.35998047 474.21335937 -89.70703125 472.390625 C-87.25711383 465.3924491 -86.60526539 458.06856366 -85.6875 450.75 C-85.47755321 449.12992747 -85.26667332 447.50997563 -85.05493164 445.89013672 C-84.60236483 442.42106639 -84.15428891 438.95145501 -83.70898438 435.48144531 C-82.98610441 429.86791713 -82.2378748 424.25792771 -81.484375 418.6484375 C-81.35701462 417.69993927 -81.22965424 416.75144104 -81.09843445 415.77420044 C-80.8404914 413.85335059 -80.58253139 411.93250301 -80.32455444 410.01165771 C-78.47536344 396.22036406 -76.65274576 382.42568663 -74.875 368.625 C-74.71547852 367.38758057 -74.55595703 366.15016113 -74.39160156 364.87524414 C-73.62150639 358.88557092 -72.86080585 352.89487591 -72.11328125 346.90234375 C-69.83283728 328.75147312 -67.2321375 310.65638841 -64.5715332 292.55786133 C-62.46920286 278.25487131 -60.44287911 263.94451396 -58.49462891 249.61962891 C-57.63416847 243.32289329 -56.75747097 237.02841361 -55.88189697 230.73376465 C-55.56285428 228.44004703 -55.24403676 226.14629823 -54.92529297 223.85253906 C-54.49729978 220.77261442 -54.06923751 217.6926994 -53.64111328 214.61279297 C-53.00914129 210.06612222 -52.37756655 205.51939635 -51.74609375 200.97265625 C-51.6432608 200.2323819 -51.54042786 199.49210754 -51.43447876 198.72940063 C-50.91351888 194.97884687 -50.39293816 191.22824111 -49.87304688 187.47753906 C-48.95102805 180.82832518 -48.02701305 174.17944334 -47.0881958 167.53257751 C-46.57771741 163.91781986 -46.06946987 160.30275131 -45.5625 156.6875 C-45.461651 155.96837433 -45.360802 155.24924866 -45.25689697 154.5083313 C-43.92742948 144.99773876 -42.66595047 135.47980306 -41.45703125 125.953125 C-41.3254512 124.91634109 -41.19387115 123.87955719 -41.05830383 122.81135559 C-40.41426442 117.72542009 -39.77525682 112.63890495 -39.14282227 107.55151367 C-37.82754195 97.03823582 -36.35650049 86.56977527 -34.66064453 76.11108398 C-33.86257731 71.18854996 -33.17504892 66.25316419 -32.5 61.3125 C-32.01043124 57.87343057 -31.50904675 54.43623732 -31 51 C-30.89220215 50.26620117 -30.7844043 49.53240234 -30.67333984 48.77636719 C-28.43161685 33.98994855 -24.46729501 16.93887591 -12.5078125 6.91015625 C-8.48968075 3.99492416 -4.66455555 1.72638355 0 0 Z " fill="#A6A6A5" transform="translate(1218,392)"/>
<path d="M0 0 C11.53641134 -0.43670958 22.64426281 -0.06918555 34.0625 1.75 C35.07111084 1.90694336 36.07972168 2.06388672 37.11889648 2.22558594 C48.86503809 4.23189354 59.99274551 6.78599896 67.33984375 16.83203125 C71.92469434 24.32116443 71.28024416 32.51250638 71.3125 41 C71.31692612 42.02160217 71.31692612 42.02160217 71.32144165 43.06384277 C71.33596446 57.94647221 69.44386352 72.3206649 67 87 C66.61439499 89.37782276 66.23176824 91.75610382 65.84985352 94.13452148 C65.61415817 95.6018196 65.37632139 97.06877515 65.13647461 98.53540039 C63.98455617 105.72977187 63.12540891 112.95511604 62.25 120.1875 C60.63097864 133.50879083 58.76790324 146.7866579 56.8125 160.0625 C56.59533325 161.53837585 56.59533325 161.53837585 56.3737793 163.04406738 C55.75830101 167.226591 55.14270001 171.40909651 54.52676392 175.59155273 C52.60464339 188.66001351 50.71816681 201.73355959 48.84286499 214.80880737 C48.45439734 217.51648234 48.06444094 220.22393557 47.67300415 222.93118286 C45.61755117 237.16063493 43.6228462 251.38567491 42.02593994 265.67503357 C41.38279899 271.31385219 40.53066297 276.86646277 39.47796631 282.44340515 C38.81365487 285.9967418 38.25985498 289.56097811 37.703125 293.1328125 C30.55534527 338.07878487 30.55534527 338.07878487 15.625 351.3125 C6.04361244 357.89133697 -7.99306146 361.21927313 -19.4375 361.0625 C-20.30246094 361.05347656 -21.16742187 361.04445313 -22.05859375 361.03515625 C-23.01958984 361.01775391 -23.01958984 361.01775391 -24 361 C-24 359.35 -24 357.7 -24 356 C-23.19175781 355.69707031 -22.38351562 355.39414062 -21.55078125 355.08203125 C-13.36660206 351.89785202 -13.36660206 351.89785202 -7 346 C-6.175 345.113125 -5.35 344.22625 -4.5 343.3125 C4.65629052 332.0034766 7.332943 316.78780634 9.5 302.8125 C9.71156329 301.48817303 9.92381718 300.16395623 10.13671875 298.83984375 C10.5656218 296.16053697 10.98860908 293.48040135 11.40625 290.79931641 C11.93755284 287.39958994 12.48183298 284.00230385 13.03125 280.60546875 C15.08984331 267.72558819 16.82502468 254.8125624 18.48382568 241.87664795 C19.94654618 230.51383206 21.53835419 219.17310739 23.21484375 207.83984375 C23.36221135 206.84352086 23.36221135 206.84352086 23.51255608 205.82707024 C24.59632856 198.5073518 25.69002279 191.18915824 26.78979492 183.87182617 C28.81714702 170.33616686 30.70224481 156.79873014 32.35644531 143.21240234 C33.16040042 136.62677156 34.0959414 130.06372191 35.0625 123.5 C36.10881999 116.29822262 37.14042004 109.10155718 38 101.875 C38.83449645 94.93079739 39.91456996 88.03402814 41 81.125 C43.18137828 67.0595291 45.13655837 53.25252867 45.3125 39 C45.33022461 38.15139404 45.34794922 37.30278809 45.36621094 36.4284668 C45.35658319 28.24247521 43.51883887 20.88584971 39 14 C39 13.34 39 12.68 39 12 C38.41613525 11.7110083 37.83227051 11.4220166 37.23071289 11.12426758 C35.86843187 10.4376851 34.51369794 9.73549484 33.17358398 9.0065918 C28.24520014 6.37756127 23.51995054 4.92272813 18.0625 3.8125 C17.31548828 3.64814453 16.56847656 3.48378906 15.79882812 3.31445312 C10.55181872 2.19623801 5.33827224 1.52481524 0 1 C0 0.67 0 0.34 0 0 Z " fill="#D9D8D7" transform="translate(1535,363)"/>
<path d="M0 0 C1.91817787 -0.00824799 1.91817787 -0.00824799 3.87510681 -0.0166626 C5.27954482 -0.00250874 6.68397899 0.01203046 8.08840942 0.0269165 C9.57695993 0.02804559 11.06551267 0.02740993 12.55406189 0.02514648 C16.58476607 0.02400077 20.61499225 0.04748664 24.64558554 0.07544231 C28.86161965 0.10047989 33.07766522 0.10279982 37.29376221 0.10754395 C45.27288529 0.11996682 53.25178864 0.15277904 61.23081505 0.1929419 C70.31660274 0.2376811 79.40240102 0.25965205 88.48827147 0.27972364 C107.17428178 0.32151233 125.86008769 0.39185094 144.54592896 0.48101807 C144.57062738 5.19611529 144.52163014 9.62129468 143.77639771 14.28961182 C143.52599731 15.90899658 143.52599731 15.90899658 143.27053833 17.56109619 C143.09329224 18.66904541 142.91604614 19.77699463 142.73342896 20.91851807 C141.36846279 29.50665152 140.22507074 38.09004507 139.22561646 46.72711182 C137.4240009 62.14855415 135.11484675 77.49139624 132.82089233 92.84552002 C131.92339772 98.85738663 131.03208689 104.87017316 130.14068794 110.88294601 C129.8350879 112.94052972 129.52782204 114.99785852 129.2202301 117.05514526 C128.06155652 124.83679505 128.06155652 124.83679505 127.00372314 132.63256836 C126.91582047 133.31228888 126.8279178 133.99200939 126.73735142 134.6923275 C126.49643014 136.5745872 126.26076208 138.45751715 126.0254364 140.34048462 C125.17061416 145.93914186 123.78997209 149.18042752 119.79592896 153.35601807 C113.266673 157.62514696 105.20247562 156.61910831 97.64382935 156.59454346 C95.87202301 156.5947625 95.87202301 156.5947625 94.06442261 156.59498596 C90.84384786 156.59441088 87.62331722 156.58941413 84.40275121 156.582412 C81.03018592 156.57613796 77.65761966 156.57557147 74.28504944 156.5743866 C67.90685857 156.57128519 61.52868496 156.56308791 55.15050167 156.55303711 C47.88566739 156.54183892 40.62083226 156.5363562 33.35599148 156.53134167 C18.41929438 156.52090426 3.4826134 156.50332796 -11.45407104 156.48101807 C-11.45407104 156.15101807 -11.45407104 155.82101807 -11.45407104 155.48101807 C26.16592896 155.48101807 63.78592896 155.48101807 102.54592896 155.48101807 C102.54592896 152.84101807 102.54592896 150.20101807 102.54592896 147.48101807 C102.77620021 145.2928166 103.05574164 143.10923155 103.384552 140.93365479 C103.66090485 139.07450439 103.66090485 139.07450439 103.94284058 137.17779541 C104.14773227 135.83875873 104.35266926 134.49972897 104.55764771 133.16070557 C104.76894852 131.75031163 104.979649 130.33982764 105.18978882 128.92926025 C105.63505092 125.94635357 106.08351256 122.96395459 106.53466797 119.98193359 C107.70331773 112.25453152 108.85130547 104.52404746 109.99905396 96.79351807 C110.11199736 96.03396694 110.22494076 95.27441582 110.34130669 94.49184799 C112.38711833 80.7225401 114.29060722 66.93902438 116.01150513 53.12506104 C117.26503964 43.17156794 118.89210576 33.40395723 120.54592896 23.48101807 C75.00592896 23.48101807 29.46592896 23.48101807 -17.45407104 23.48101807 C-16.30426815 13.13279205 -16.30426815 13.13279205 -14.76657104 9.16851807 C-14.47395386 8.36801025 -14.18133667 7.56750244 -13.87985229 6.74273682 C-10.55976198 1.47607299 -5.9708539 -0.01986973 0 0 Z " fill="#A7A6A5" transform="translate(1324.4540710449219,465.51898193359375)"/>
<path d="M0 0 C1.27741058 -0.00412399 2.55482117 -0.00824799 3.87094116 -0.01249695 C5.27900909 -0.00188086 6.68707486 0.00902355 8.09513855 0.02018738 C9.5835417 0.02103395 11.07194609 0.02055793 12.56034851 0.01885986 C16.59515776 0.01799964 20.62969909 0.0356297 24.66444612 0.05658174 C28.8831663 0.07534403 33.10189272 0.07709862 37.32064819 0.08065796 C45.3068415 0.08997974 53.2929115 0.11459532 61.27905053 0.14470643 C70.37208369 0.17824629 79.46512276 0.19473541 88.55820239 0.20979273 C107.26093263 0.24114476 125.96354814 0.29390785 144.66618347 0.36076355 C144.69042291 4.60946633 144.60144165 8.62825238 143.93180847 12.8256073 C143.77212585 13.85500427 143.61244324 14.88440125 143.44792175 15.94499207 C143.27244812 17.05157166 143.09697449 18.15815125 142.91618347 19.29826355 C141.37657923 29.32341906 140.00942306 39.35417938 138.79118347 49.42326355 C136.6015193 67.39828451 134.00652832 85.31232537 131.40837097 103.23210144 C130.61261615 108.72473918 129.82359505 114.21832998 129.03727722 119.71232605 C128.91287766 120.57939682 128.78847809 121.44646759 128.66030884 122.33981323 C128.00758751 126.90583846 127.38953127 131.47473845 126.79118347 136.04826355 C125.66399273 142.65985292 123.03902456 150.017607 117.66618347 154.36076355 C114.44948763 155.56358785 111.32234118 155.46381305 107.91618347 155.42326355 C106.93133972 155.41424011 105.94649597 155.40521667 104.93180847 155.3959198 C103.8103241 155.37851746 103.8103241 155.37851746 102.66618347 155.36076355 C103.68418621 142.86344049 105.16584614 130.50898776 107.06803894 118.11564636 C108.37503982 109.52542182 109.49643829 100.92403898 110.54118347 92.29826355 C112.35699875 77.34913471 114.46982668 62.44834458 116.64811707 47.54801941 C116.7742186 46.68038467 116.90032013 45.81274994 117.03024292 44.91882324 C117.26489331 43.30564457 117.50138536 41.69273205 117.74023438 40.08016968 C118.55059804 34.50567243 119.10409273 28.981671 119.66618347 23.36076355 C74.45618347 23.36076355 29.24618347 23.36076355 -17.33381653 23.36076355 C-16.081799 8.33655327 -16.081799 8.33655327 -11.33381653 3.36076355 C-7.43828551 0.56627752 -4.76386088 -0.01187995 0 0 Z " fill="#A6A6A5" transform="translate(901.3338165283203,465.6392364501953)"/>
<path d="M0 0 C36.47695183 -0.95119091 36.47695183 -0.95119091 50 7 C51.093125 7.639375 52.18625 8.27875 53.3125 8.9375 C59.56272121 13.73418139 61.99217703 19.52774566 64 27 C64.54623666 31.59039967 64.55185217 36.10829976 64.4765625 40.7265625 C64.46468903 42.02880768 64.45281555 43.33105286 64.44058228 44.67276001 C64.2251775 58.66640708 62.53960711 72.48364514 60.65053558 86.33833694 C60.27360013 89.12451254 59.91066913 91.91244962 59.54750252 94.70044804 C58.40440642 103.47249132 57.21146883 112.23714925 56 121 C55.85095215 122.08359802 55.7019043 123.16719604 55.54833984 124.28363037 C53.85720947 136.54900132 52.03805122 148.78735124 50 161 C49.88074158 161.71980042 49.76148315 162.43960083 49.63861084 163.18121338 C41.93826538 209.43109829 41.93826538 209.43109829 28.6015625 219.87890625 C15.78159191 228.67656515 3.08784622 230.22631769 -12 230 C-11.78125 227.61328125 -11.78125 227.61328125 -11 225 C-9.03125 223.91796875 -9.03125 223.91796875 -6.5 223.1875 C1.73828497 220.20994843 7.13645531 215.22339002 11.25 207.5 C16.2658079 196.36297199 19.13195732 185.02237478 21.40625 173.07421875 C21.6228981 171.93924454 21.8395462 170.80427032 22.0627594 169.63490295 C24.34846968 157.44929769 26.19108712 145.21028849 27.9375 132.9375 C28.10475586 131.7708783 28.27201172 130.60425659 28.44433594 129.40228271 C29.65560763 120.93840727 30.83720087 112.47066366 32 104 C32.15784973 102.8515863 32.31569946 101.70317261 32.47833252 100.5199585 C41.39223133 56.11491727 41.39223133 56.11491727 32.5625 13.625 C24.41435498 4.06583475 11.71537494 2.58240846 0 1 C0 0.67 0 0.34 0 0 Z " fill="#D9D8D8" transform="translate(685,493)"/>
<path d="M0 0 C-2.21373214 8.00438937 -7.92144359 14.15483538 -14.6875 18.875 C-32.89723322 29.0394073 -58.4132921 28.16764764 -78.54248047 28.11352539 C-80.04206338 28.11324247 -81.54164642 28.11340329 -83.04122925 28.1139679 C-87.06507775 28.1142518 -91.0888957 28.10842161 -95.11273718 28.10139394 C-99.33542057 28.09509193 -103.55810486 28.09455123 -107.78079224 28.09336853 C-115.75600849 28.09027523 -123.73121085 28.08208914 -131.70642102 28.07201904 C-140.7948417 28.06079535 -149.88326309 28.05533177 -158.97168899 28.05032361 C-177.6478005 28.0399046 -196.32389913 28.02234438 -215 28 C-215 28.66 -215 29.32 -215 30 C-159.56 30 -104.12 30 -47 30 C-47 30.33 -47 30.66 -47 31 C-102.77 31 -158.54 31 -216 31 C-216 30.01 -216 29.02 -216 28 C-224.25 28 -232.5 28 -241 28 C-240.773125 25.48375 -240.54625 22.9675 -240.3125 20.375 C-240.25360596 19.59431152 -240.19471191 18.81362305 -240.1340332 18.00927734 C-239.54271711 12.54809542 -237.88629646 9.88032673 -234 6 C-228.36993802 3.18496901 -220.70822108 3.85293999 -214.52198792 3.86196899 C-213.31668841 3.85773707 -213.31668841 3.85773707 -212.08703941 3.85341966 C-209.42072779 3.84515193 -206.75445811 3.84374217 -204.08813477 3.84228516 C-202.16529729 3.83761099 -200.24246092 3.83246644 -198.31962585 3.82688904 C-194.1896888 3.81564639 -190.05975879 3.80719365 -185.92981148 3.80076981 C-179.38375839 3.79003753 -172.83775604 3.76977742 -166.29173279 3.74765015 C-147.68059628 3.68590602 -129.06946298 3.63180525 -110.45825195 3.59863281 C-100.17081354 3.58021675 -89.88346054 3.55119355 -79.59608501 3.5106281 C-74.16298395 3.48967439 -68.72998997 3.47411747 -63.29684639 3.47182083 C-58.17739515 3.46965413 -53.05816677 3.45358152 -47.93878365 3.42743111 C-46.07417027 3.42031287 -44.20952966 3.41810015 -42.34490585 3.42153358 C-32.35726342 3.43696846 -22.81521135 2.96546936 -12.99253613 1.04597342 C-8.53883926 0.17899986 -4.50885784 -0.13898563 0 0 Z " fill="#A9A6A5" transform="translate(709,461)"/>
<path d="M0 0 C0.33 0.66 0.66 1.32 1 2 C9.25 2 17.5 2 26 2 C24.43517446 15.88123331 22.15787052 29.6169343 19.79638672 43.38305664 C19.34738478 46.01094254 18.90219701 48.63907189 18.46435547 51.26879883 C17.82239217 55.11460351 17.16672117 58.95784785 16.5078125 62.80078125 C16.31599396 63.96249344 16.12417542 65.12420563 15.92654419 66.32112122 C12.61676571 85.29061972 4.40462014 101.71706565 -11.3671875 113.33984375 C-21.99253182 120.03980122 -33.74122794 124.61952385 -46.375 125.25 C-50.82533628 126.17075923 -51.96131456 127.71782923 -54.92578125 130.96875 C-78.06077268 153.62448548 -117.7533214 151.18158724 -147.4375 151.0625 C-149.63346252 151.05747269 -151.82942615 151.05291197 -154.02539062 151.04882812 C-159.35028528 151.03792534 -164.67513724 151.02128574 -170 151 C-167.3622013 148.32836186 -164.75580855 145.68896257 -161.84375 143.31640625 C-161.29589844 142.86330078 -160.74804688 142.41019531 -160.18359375 141.94335938 C-159.06311085 141.02435542 -157.94071666 140.10767677 -156.81640625 139.19335938 C-153.06357759 136.08071914 -150.04386257 132.81018713 -147 129 C-145 127 -145 127 -141.31762695 126.82055664 C-139.70769847 126.84105227 -138.09788112 126.87171112 -136.48828125 126.91015625 C-134.69434481 126.93323588 -132.90039885 126.95558476 -131.10644531 126.97729492 C-130.16079712 126.99182709 -129.21514893 127.00635925 -128.24084473 127.02133179 C-113.68165757 127.22601251 -99.24501468 127.14750179 -84.75 125.6875 C-83.56575439 125.56963135 -82.38150879 125.4517627 -81.16137695 125.33032227 C-63.77724305 123.44050159 -63.77724305 123.44050159 -47.625 117.1875 C-46.62533203 116.65757446 -46.62533203 116.65757446 -45.60546875 116.11694336 C-43.72125051 115.10344147 -41.8581205 114.06042652 -40 113 C-39.10023438 112.49210938 -38.20046875 111.98421875 -37.2734375 111.4609375 C-28.72628403 106.20341011 -23.27613166 99.13129346 -18.75 90.3125 C-18.43281006 89.70229004 -18.11562012 89.09208008 -17.78881836 88.46337891 C-11.28206225 75.07385241 -9.55502365 60.23422515 -7.375 45.6875 C-6.92590448 42.73522928 -6.47419565 39.78338958 -6.0194397 36.83198547 C-5.73962649 35.0115844 -5.46330849 33.19064103 -5.19125366 31.36906433 C-4.4556948 26.53582068 -3.56370316 21.7825197 -2.44354248 17.02304077 C-1.71122989 13.68289122 -1.30289663 10.33010899 -0.875 6.9375 C-0.74544922 5.92526367 -0.74544922 5.92526367 -0.61328125 4.89257812 C-0.40514632 3.26218781 -0.20201454 1.63115997 0 0 Z " fill="#D9D8D8" transform="translate(1269,746)"/>
<path d="M0 0 C0.33 0.66 0.66 1.32 1 2 C9.25 2 17.5 2 26 2 C25.37772339 12.75064716 23.85954683 23.25923937 22.21893311 33.89395142 C19.55285965 51.19775021 17.04662821 68.51323164 14.86230469 85.88452148 C12.81523103 101.96582322 10.36076081 117.94682648 8 134 C45.29 134 82.58 134 121 134 C121 134.33 121 134.66 121 135 C106.56801795 135.02356733 92.13603896 135.04102746 77.70404148 135.05181217 C71.00003419 135.05692529 64.29604144 135.06400076 57.59204102 135.07543945 C51.10158602 135.08644231 44.61114347 135.09231299 38.12067986 135.09487724 C35.66564679 135.09670059 33.21061427 135.10025954 30.75558662 135.10573006 C14.4780578 135.14050157 -1.74089175 134.78870404 -18 134 C-17.43948451 125.49141018 -16.51379146 117.16193998 -15.125 108.75 C-13.77239606 100.28502429 -12.57864564 91.8313554 -11.625 83.3125 C-10.28605695 71.4720051 -8.45085293 59.72425143 -6.599823 47.95574951 C-4.65293132 35.55413782 -2.9343604 23.16180675 -1.54296875 10.68359375 C-1.14303751 7.09836944 -0.64405148 3.55114624 0 0 Z " fill="#D9D6D5" transform="translate(883,487)"/>
<path d="M0 0 C0.33 0.66 0.66 1.32 1 2 C9.25 2 17.5 2 26 2 C25.52820312 5.35865234 25.52820312 5.35865234 25.046875 8.78515625 C24.6137158 11.87748315 24.18173195 14.96997353 23.75 18.0625 C23.63640137 18.87586823 23.52280273 19.68923645 23.40576172 20.5272522 C21.86553566 31.572444 20.3938198 42.6227928 19 53.6875 C17.56926409 65.00590321 15.93243758 76.27954032 14.18127441 87.55160522 C12.32220149 99.53160144 10.71532514 111.53326733 9.25585938 123.56835938 C9.10439453 124.79361328 8.95292969 126.01886719 8.796875 127.28125 C8.66635742 128.36470703 8.53583984 129.44816406 8.40136719 130.56445312 C8 133 8 133 7 134 C5.14630389 134.08737645 3.28932459 134.10698153 1.43359375 134.09765625 C0.30888672 134.09443359 -0.81582031 134.09121094 -1.97460938 134.08789062 C-3.15861328 134.07951172 -4.34261719 134.07113281 -5.5625 134.0625 C-6.75037109 134.05798828 -7.93824219 134.05347656 -9.16210938 134.04882812 C-12.10812226 134.03699675 -15.05403681 134.02051287 -18 134 C-18.30103676 126.08349748 -17.37471437 118.58619059 -16.13671875 110.77734375 C-15.94406937 109.51902237 -15.75141998 108.26070099 -15.55293274 106.96424866 C-15.04138816 103.62760367 -14.52394085 100.29200044 -14.00280762 96.95684814 C-13.0796049 91.04431196 -12.16800641 85.12999548 -11.26171875 79.21484375 C-11.06483963 77.93067062 -10.86796051 76.6464975 -10.66511536 75.32341003 C-9.25397386 65.99103282 -8.05889373 56.64639329 -6.97540283 47.27090454 C-6.1433077 40.08047375 -5.1511252 32.94968337 -3.9375 25.8125 C-3.59677449 23.74754113 -3.25692511 21.6824375 -2.91796875 19.6171875 C-2.75989746 18.6590918 -2.60182617 17.70099609 -2.43896484 16.71386719 C-1.53983215 11.15504682 -0.7585878 5.57961293 0 0 Z " fill="#D9D8D7" transform="translate(1306,487)"/>
<path d="M0 0 C8.25 0 16.5 0 25 0 C25 6.80026199 24.79704112 12.64037985 23.609375 19.19921875 C23.46348938 20.03733597 23.31760376 20.87545319 23.16729736 21.7389679 C22.85864582 23.50012559 22.54583174 25.2605585 22.22900391 27.02026367 C21.75457291 29.6620367 21.29621681 32.30622663 20.83984375 34.95117188 C13.0535166 79.35630513 13.0535166 79.35630513 -1.8125 91.375 C-13.01204589 99.05840939 -28.54087712 102.61177831 -42 102 C-41.67 100.68 -41.34 99.36 -41 98 C-41.66 97.67 -42.32 97.34 -43 97 C-42.38253906 96.79246094 -41.76507812 96.58492188 -41.12890625 96.37109375 C-30.35398424 92.45144937 -22.36520745 86.25956528 -17 76 C-10.02689326 59.99126589 -6.6003412 43.03405271 -4.5 25.78125 C-3.35669001 17.1349682 -1.70997755 8.54988776 0 0 Z " fill="#D9D8D7" transform="translate(750,363)"/>
<path d="M0 0 C-3.56449043 10.57910262 -13.56208745 18.20012126 -23.17236328 23.12109375 C-47.7251465 34.92847013 -75.80447232 34.1693466 -102.4375 34.0625 C-104.63346252 34.05747269 -106.82942615 34.05291197 -109.02539062 34.04882812 C-114.35028528 34.03792534 -119.67513724 34.02128574 -125 34 C-122.3622013 31.32836186 -119.75580855 28.68896257 -116.84375 26.31640625 C-116.02197266 25.63674805 -116.02197266 25.63674805 -115.18359375 24.94335938 C-114.06311085 24.02435542 -112.94071666 23.10767677 -111.81640625 22.19335938 C-108.06357759 19.08071914 -105.04386257 15.81018713 -102 12 C-100 10 -100 10 -96.31762695 9.82055664 C-94.70769847 9.84105227 -93.09788112 9.87171112 -91.48828125 9.91015625 C-89.69434481 9.93323588 -87.90039885 9.95558476 -86.10644531 9.97729492 C-85.16079712 9.99182709 -84.21514893 10.00635925 -83.24084473 10.02133179 C-68.68165757 10.22601251 -54.24501468 10.14750179 -39.75 8.6875 C-38.56575439 8.56963135 -37.38150879 8.4517627 -36.16137695 8.33032227 C-19.37946758 6.46480653 -19.37946758 6.46480653 -3.63671875 0.76953125 C-2 0 -2 0 0 0 Z " fill="#A6A5A5" transform="translate(1224,863)"/>
<path d="M0 0 C0 3.50507253 -0.94382315 5.55886068 -2.25 8.8125 C-4.4001907 14.73424037 -5.79603549 20.47707802 -6.85546875 26.6796875 C-7.02147079 27.62132248 -7.18747284 28.56295746 -7.35850525 29.53312683 C-7.91245908 32.68760694 -8.45658874 35.84368774 -9 39 C-9.40258078 41.31571752 -9.80542036 43.63139006 -10.20849609 45.94702148 C-11.50262562 53.40056149 -12.78323154 60.85639739 -14.0625 68.3125 C-14.9278641 73.35035011 -15.79383294 78.38809601 -16.66015625 83.42578125 C-16.86468414 84.61551544 -17.06921204 85.80524963 -17.27993774 87.03103638 C-18.82788106 96.02530967 -20.40379837 105.01416983 -22 114 C-28.93 114 -35.86 114 -43 114 C-41.03199539 100.99493862 -39.03652931 87.99451394 -37 75 C-36.8231366 73.86872681 -36.8231366 73.86872681 -36.6427002 72.71459961 C-28.400693 20.13411621 -28.400693 20.13411621 -7 4 C-4.70808701 2.53282843 -2.41716694 1.25894112 0 0 Z " fill="#A6A5A4" transform="translate(1083,249)"/>
</svg>
